<svg width="80.000000" height="80.000000" viewBox="0 0 80 80" fill="none" xmlns="http://www.w3.org/2000/svg" xmlns:xlink="http://www.w3.org/1999/xlink">
	<desc>
			Created with Pixso.
	</desc>
	<defs>
		<clipPath id="clip48_905">
			<rect id="calendar 1" width="80.000000" height="80.000000" fill="white" fill-opacity="0"/>
		</clipPath>
	</defs>
	<rect id="calendar 1" width="80.000000" height="80.000000" fill="#FFFFFF" fill-opacity="0"/>
	<g clip-path="url(#clip48_905)">
		<path id="Vector" d="M2.66 64L2.66 74.66C2.66 77.61 5.05 80 7.99 80L71.99 80C74.94 80 77.33 77.61 77.33 74.66L77.33 64L2.66 64Z" fill="#B5DBFF" fill-opacity="1.000000" fill-rule="nonzero"/>
		<path id="Vector" d="M73.63 64L73.63 74.66C73.63 77.61 71.24 80 68.29 80L72 80C74.94 80 77.33 77.61 77.33 74.66L77.33 64L73.63 64Z" fill="#97D0FF" fill-opacity="1.000000" fill-rule="nonzero"/>
		<path id="Vector" d="M2.66 21.33L2.66 69.33C2.66 72.27 5.05 74.66 7.99 74.66L71.99 74.66C74.94 74.66 77.33 72.27 77.33 69.33L77.33 21.33L2.66 21.33Z" fill="#EDF5FF" fill-opacity="1.000000" fill-rule="nonzero"/>
		<path id="Vector" d="M73.63 21.33L73.63 69.33C73.63 72.27 71.24 74.66 68.29 74.66L72 74.66C74.94 74.66 77.33 72.27 77.33 69.33L77.33 21.33L73.63 21.33Z" fill="#D5E8FE" fill-opacity="1.000000" fill-rule="nonzero"/>
		<path id="Vector" d="M77.33 24L77.33 10.66C77.33 7.72 74.94 5.33 72 5.33L8 5.33C5.05 5.33 2.66 7.72 2.66 10.66L2.66 24L77.33 24Z" fill="#FF435B" fill-opacity="1.000000" fill-rule="nonzero"/>
		<path id="Vector" d="M18.66 11.87L16 11.87C15.33 11.87 14.79 11.33 14.79 10.66C14.79 10 15.33 9.45 16 9.45L18.66 9.45C19.33 9.45 19.87 10 19.87 10.66C19.87 11.33 19.33 11.87 18.66 11.87Z" fill="#E3374E" fill-opacity="1.000000" fill-rule="nonzero"/>
		<path id="Vector" d="M26.66 11.87L24 11.87C23.33 11.87 22.79 11.33 22.79 10.66C22.79 10 23.33 9.45 24 9.45L26.66 9.45C27.33 9.45 27.87 10 27.87 10.66C27.87 11.33 27.33 11.87 26.66 11.87Z" fill="#E3374E" fill-opacity="1.000000" fill-rule="nonzero"/>
		<path id="Vector" d="M56 11.87L53.33 11.87C52.66 11.87 52.12 11.33 52.12 10.66C52.12 10 52.66 9.45 53.33 9.45L56 9.45C56.66 9.45 57.2 10 57.2 10.66C57.2 11.33 56.66 11.87 56 11.87Z" fill="#E3374E" fill-opacity="1.000000" fill-rule="nonzero"/>
		<path id="Vector" d="M64 11.87L61.33 11.87C60.66 11.87 60.12 11.33 60.12 10.66C60.12 10 60.66 9.45 61.33 9.45L64 9.45C64.66 9.45 65.2 10 65.2 10.66C65.2 11.33 64.66 11.87 64 11.87Z" fill="#E3374E" fill-opacity="1.000000" fill-rule="nonzero"/>
		<path id="Vector" d="M18.66 10.66C18.66 12.13 19.86 13.33 21.33 13.33C22.8 13.33 24 12.13 24 10.66L24 2.66C23.99 1.19 22.8 0 21.33 0C19.86 0 18.66 1.19 18.66 2.66L18.66 10.66L18.66 10.66Z" fill="#596C76" fill-opacity="1.000000" fill-rule="nonzero"/>
		<path id="Vector" d="M56 10.66C56 12.13 57.19 13.33 58.66 13.33C60.13 13.33 61.33 12.13 61.33 10.66L61.33 2.66C61.33 1.19 60.13 0 58.66 0C57.19 0 56 1.19 56 2.66L56 10.66Z" fill="#596C76" fill-opacity="1.000000" fill-rule="nonzero"/>
		<path id="Vector" d="M71.99 5.33L68.29 5.33C71.24 5.33 73.62 7.72 73.62 10.66L73.62 24L77.33 24L77.33 10.66C77.33 7.72 74.94 5.33 71.99 5.33Z" fill="#E3374E" fill-opacity="1.000000" fill-rule="nonzero"/>
		<path id="Vector" d="M2.66 17.45L77.33 17.45L77.33 19.87L2.66 19.87L2.66 17.45Z" fill="#E3374E" fill-opacity="1.000000" fill-rule="nonzero"/>
		<path id="Vector" d="M41.33 42C41.33 36.48 36.84 32 31.33 32C25.81 32 21.33 36.48 21.33 42C21.33 43.47 22.52 44.66 24 44.66C25.47 44.66 26.66 43.47 26.66 42C26.66 39.42 28.75 37.33 31.33 37.33C33.9 37.33 36 39.42 36 42C36 44.57 33.9 46.66 31.33 46.66C29.86 46.66 28.66 47.86 28.66 49.33C28.66 50.8 29.86 52 31.33 52C33.9 52 36 54.09 36 56.66C36 59.24 33.9 61.33 31.33 61.33C28.75 61.33 26.66 59.24 26.66 56.66C26.66 55.19 25.47 54 24 54C22.52 54 21.33 55.19 21.33 56.66C21.33 62.18 25.81 66.66 31.33 66.66C36.84 66.66 41.33 62.18 41.33 56.66C41.33 53.77 40.09 51.16 38.12 49.33C40.09 47.5 41.33 44.89 41.33 42Z" fill="#596C76" fill-opacity="1.000000" fill-rule="nonzero"/>
		<path id="Vector" d="M54.14 32.2C53.14 31.78 52 32.01 51.23 32.78L45.9 38.11C44.86 39.15 44.86 40.84 45.9 41.88C46.94 42.92 48.63 42.92 49.67 41.88L50.45 41.1L50.45 64C50.45 65.47 51.65 66.66 53.12 66.66C54.59 66.66 55.79 65.47 55.79 64L55.79 34.66C55.79 33.58 55.14 32.61 54.14 32.2Z" fill="#596C76" fill-opacity="1.000000" fill-rule="nonzero"/>
	</g>
</svg>
