<svg width="88.000000" height="88.000000" viewBox="0 0 88 88" fill="none" xmlns="http://www.w3.org/2000/svg" xmlns:xlink="http://www.w3.org/1999/xlink">
	<desc>
			Created with Pixso.
	</desc>
	<defs>
		<filter id="filter_48_874_dd" x="0.000000" y="0.000000" width="88.000000" height="88.000000" filterUnits="userSpaceOnUse" color-interpolation-filters="sRGB">
			<feFlood flood-opacity="0" result="BackgroundImageFix"/>
			<feColorMatrix in="SourceAlpha" type="matrix" values="0 0 0 0 0 0 0 0 0 0 0 0 0 0 0 0 0 0 127 0" result="hardAlpha"/>
			<feOffset dx="0" dy="4"/>
			<feGaussianBlur stdDeviation="1.33333"/>
			<feComposite in2="hardAlpha" operator="out" k2="-1" k3="1"/>
			<feColorMatrix type="matrix" values="0 0 0 0 0 0 0 0 0 0 0 0 0 0 0 0 0 0 0.25 0"/>
			<feBlend mode="normal" in2="BackgroundImageFix" result="effect_dropShadow_1"/>
			<feBlend mode="normal" in="SourceGraphic" in2="effect_dropShadow_1" result="shape"/>
		</filter>
		<clipPath id="clip48_874">
			<rect id="day 1" width="80.000000" height="80.000000" transform="translate(4.000000 0.000000)" fill="white" fill-opacity="0"/>
		</clipPath>
	</defs>
	<g filter="url(#filter_48_874_dd)">
		<rect id="day 1" width="80.000000" height="80.000000" transform="translate(4.000000 0.000000)" fill="#FFFFFF" fill-opacity="0"/>
		<g clip-path="url(#clip48_874)">
			<path id="Vector" d="M69.49 35.78C69.49 49.89 58.05 61.33 43.94 61.33C29.84 61.33 18.41 49.92 18.39 35.83L18.39 35.78C18.39 24.84 25.26 15.51 34.93 11.86C37.73 10.81 40.77 10.23 43.94 10.23C58.05 10.23 69.49 21.67 69.49 35.78Z" fill="#FFE26F" fill-opacity="1.000000" fill-rule="nonzero"/>
			<path id="Vector" d="M43.94 10.23C40.77 10.23 37.73 10.81 34.93 11.86C36.89 11.36 38.95 11.09 41.06 11.09C53.56 11.09 63.9 20.37 65.56 32.41C65.81 34.22 64.39 35.83 62.57 35.83L18.39 35.83C18.41 49.92 29.84 61.33 43.94 61.33C58.05 61.33 69.49 49.89 69.49 35.78C69.49 21.67 58.05 10.23 43.94 10.23Z" fill="#FFC54B" fill-opacity="1.000000" fill-rule="nonzero"/>
			<path id="Vector" d="M60.98 35.78C60.98 45.19 53.35 52.82 43.94 52.82C34.55 52.82 26.93 45.22 26.9 35.83L26.9 35.78C26.9 27.17 33.29 20.06 41.57 18.91C42.35 18.8 43.14 18.74 43.94 18.74C53.35 18.74 60.98 26.37 60.98 35.78Z" fill="#FFC54B" fill-opacity="1.000000" fill-rule="nonzero"/>
			<path id="Vector" d="M60.98 35.78C60.98 45.19 53.35 52.82 43.94 52.82C34.55 52.82 26.93 45.22 26.9 35.83L53.09 35.83C55.1 35.83 56.62 33.96 56.17 32C54.58 25.07 48.76 19.75 41.57 18.91C42.35 18.8 43.14 18.74 43.94 18.74C53.35 18.74 60.98 26.37 60.98 35.78Z" fill="#FB963F" fill-opacity="1.000000" fill-rule="nonzero"/>
			<path id="Vector" d="M79.35 40.8C79.35 52.46 73.72 62.8 65.03 69.25L52.57 73.58L50.14 72.56L12.27 56.69C10.8 53.77 9.73 50.62 9.11 47.31L11.51 40.8L79.35 40.8Z" fill="#7AC2ED" fill-opacity="1.000000" fill-rule="nonzero"/>
			<path id="Vector" d="M79.35 40.8C79.35 52.46 73.72 62.8 65.03 69.25L52.57 73.58L50.14 72.56C63.71 68.38 73.57 55.74 73.57 40.8L79.35 40.8Z" fill="#68A6DC" fill-opacity="1.000000" fill-rule="nonzero"/>
			<path id="Vector" d="M17.4 40.8C16.15 43.76 13.88 46.34 9.11 47.31C8.72 45.2 8.52 43.02 8.52 40.8L17.4 40.8Z" fill="#D1E16F" fill-opacity="1.000000" fill-rule="nonzero"/>
			<path id="Vector" d="M10.3 77.65L5.17 77.65C4.52 77.65 4 78.18 4 78.82C4 79.47 4.52 79.99 5.17 79.99L10.3 79.99C10.95 79.99 11.47 79.47 11.47 78.82C11.47 78.18 10.95 77.65 10.3 77.65Z" fill="#D0EDF5" fill-opacity="1.000000" fill-rule="nonzero"/>
			<path id="Vector" d="M26.4 77.65L15.79 77.65C15.15 77.65 14.62 78.18 14.62 78.82C14.62 79.47 15.15 79.99 15.79 79.99L26.4 79.99C27.04 79.99 27.57 79.47 27.57 78.82C27.57 78.18 27.04 77.65 26.4 77.65Z" fill="#D0EDF5" fill-opacity="1.000000" fill-rule="nonzero"/>
			<path id="Vector" d="M8.29 74.99L18.12 74.99C18.76 74.99 19.29 74.47 19.29 73.82C19.29 73.18 18.76 72.65 18.12 72.65L8.29 72.65C7.65 72.65 7.12 73.18 7.12 73.82C7.12 74.47 7.65 74.99 8.29 74.99Z" fill="#D0EDF5" fill-opacity="1.000000" fill-rule="nonzero"/>
			<path id="Vector" d="M68.83 77.65L59.01 77.65C58.36 77.65 57.84 78.18 57.84 78.82C57.84 79.47 58.36 79.99 59.01 79.99L68.83 79.99C69.48 79.99 70 79.47 70 78.82C70 78.18 69.48 77.65 68.83 77.65Z" fill="#D0EDF5" fill-opacity="1.000000" fill-rule="nonzero"/>
			<path id="Vector" d="M82.81 72.65L68.3 72.65C67.65 72.65 67.12 73.18 67.12 73.82C67.12 74.47 67.65 74.99 68.3 74.99L82.81 74.99C83.46 74.99 83.98 74.47 83.98 73.82C83.98 73.18 83.46 72.65 82.81 72.65Z" fill="#D0EDF5" fill-opacity="1.000000" fill-rule="nonzero"/>
			<path id="Vector" d="M50.27 50.3C49.15 52.85 41.09 52.26 39.12 50.3C37.6 48.77 36.89 43.57 37.84 40.8L44.32 40.8C47.86 43.36 51.29 47.96 50.27 50.3Z" fill="#D1E16F" fill-opacity="1.000000" fill-rule="nonzero"/>
			<path id="Vector" d="M65.03 69.25C59.14 73.63 51.84 76.22 43.93 76.22C35.31 76.22 27.41 73.14 21.27 68.02C17.55 64.91 14.47 61.06 12.27 56.69C26.23 56.69 17.6 47.31 24.07 47.31C32.72 47.31 31.6 61.34 36.32 63.78C40.99 66.19 44.47 61.14 51.11 61.14C56.14 61.14 56.2 65.53 59.64 67.85C60.87 68.69 62.54 69.25 65.03 69.25Z" fill="#D1E16F" fill-opacity="1.000000" fill-rule="nonzero"/>
			<path id="Vector" d="M59.64 67.85C60.87 68.69 62.54 69.25 65.03 69.25C59.14 73.63 51.84 76.22 43.93 76.22C35.31 76.22 27.41 73.14 21.27 68.02C26.67 71.81 33.24 74.03 40.34 74.03C47.53 74.03 54.2 71.74 59.64 67.85Z" fill="#9CCC4B" fill-opacity="1.000000" fill-rule="nonzero"/>
			<path id="Vector" d="M83.98 57.86C83.98 59.52 82.64 60.86 80.98 60.86L65.05 60.86C62.8 60.86 60.97 59.03 60.97 56.77C60.97 54.52 62.8 52.69 65.05 52.69C65.99 52.69 66.86 53.01 67.55 53.54C68.07 50.63 70.61 48.43 73.67 48.43C75.06 48.43 76.35 48.88 77.39 49.66C78.9 50.79 79.89 52.6 79.89 54.64C79.89 54.79 79.88 54.93 79.87 55.08C80.22 54.94 80.59 54.87 80.98 54.87C82.64 54.87 83.98 56.21 83.98 57.86Z" fill="#E6F8FC" fill-opacity="1.000000" fill-rule="nonzero"/>
			<path id="Vector" d="M83.98 57.86C83.98 59.52 82.64 60.86 80.98 60.86L65.05 60.86C62.8 60.86 60.97 59.03 60.97 56.77C60.97 57.9 62.35 58.91 63.48 58.91L72.34 58.91C75.64 58.87 78.31 56.18 78.31 52.87C78.31 51.69 77.97 50.59 77.39 49.66C78.9 50.79 79.89 52.6 79.89 54.64C79.89 54.79 79.88 54.93 79.87 55.08C80.22 54.94 80.59 54.87 80.98 54.87C82.64 54.87 83.98 56.21 83.98 57.86Z" fill="#D0EDF5" fill-opacity="1.000000" fill-rule="nonzero"/>
			<path id="Vector" d="M82.82 39.59L5.17 39.59C4.52 39.59 4 40.12 4 40.77C4 41.41 4.52 41.94 5.17 41.94L82.82 41.94C83.47 41.94 84 41.41 84 40.77C84 40.12 83.47 39.59 82.82 39.59Z" fill="#3A4B56" fill-opacity="1.000000" fill-rule="nonzero"/>
			<path id="Vector" d="M43.94 0C43.29 0 42.77 0.52 42.77 1.17L42.77 5.55C42.77 6.19 43.29 6.72 43.94 6.72C44.59 6.72 45.11 6.19 45.11 5.55L45.11 1.17C45.11 0.52 44.59 0 43.94 0L43.94 0Z" fill="#FFC54B" fill-opacity="1.000000" fill-rule="nonzero"/>
			<path id="Vector" d="M13.7 34.63L9.33 34.63C8.68 34.63 8.15 35.16 8.15 35.8C8.15 36.45 8.68 36.98 9.33 36.98L13.7 36.98C14.35 36.98 14.87 36.45 14.87 35.8C14.87 35.16 14.35 34.63 13.7 34.63Z" fill="#FFC54B" fill-opacity="1.000000" fill-rule="nonzero"/>
			<path id="Vector" d="M78.56 34.63L74.18 34.63C73.53 34.63 73.01 35.16 73.01 35.8C73.01 36.45 73.53 36.98 74.18 36.98L78.56 36.98C79.2 36.98 79.73 36.45 79.73 35.8C79.73 35.16 79.2 34.63 78.56 34.63Z" fill="#FFC54B" fill-opacity="1.000000" fill-rule="nonzero"/>
			<path id="Vector" d="M74.93 17.89C74.61 17.33 73.89 17.14 73.33 17.47L69.54 19.66C68.98 19.98 68.79 20.7 69.11 21.26C69.33 21.63 69.73 21.84 70.13 21.84C70.33 21.84 70.53 21.79 70.72 21.68L74.5 19.49C75.07 19.17 75.26 18.45 74.93 17.89Z" fill="#FFC54B" fill-opacity="1.000000" fill-rule="nonzero"/>
			<path id="Vector" d="M61.83 4.78C61.27 4.46 60.56 4.65 60.23 5.21L58.04 9.01C57.72 9.57 57.91 10.28 58.47 10.61C58.66 10.71 58.86 10.76 59.06 10.76C59.46 10.76 59.86 10.55 60.08 10.18L62.26 6.38C62.59 5.82 62.39 5.11 61.83 4.78Z" fill="#FFC54B" fill-opacity="1.000000" fill-rule="nonzero"/>
			<path id="Vector" d="M18.34 19.66L14.55 17.47C13.99 17.14 13.27 17.33 12.95 17.89C12.62 18.45 12.82 19.17 13.38 19.49L17.16 21.68C17.35 21.79 17.55 21.84 17.75 21.84C18.16 21.84 18.55 21.63 18.77 21.26C19.09 20.7 18.9 19.98 18.34 19.66Z" fill="#FFC54B" fill-opacity="1.000000" fill-rule="nonzero"/>
			<path id="Vector" d="M27.65 5.21C27.32 4.65 26.61 4.46 26.05 4.78C25.49 5.11 25.29 5.82 25.62 6.38L27.81 10.18C28.02 10.55 28.42 10.76 28.82 10.76C29.02 10.76 29.22 10.71 29.41 10.61C29.97 10.28 30.16 9.57 29.84 9.01L27.65 5.21Z" fill="#FFC54B" fill-opacity="1.000000" fill-rule="nonzero"/>
		</g>
	</g>
</svg>
