<svg width="80.000000" height="80.000000" viewBox="0 0 80 80" fill="none" xmlns="http://www.w3.org/2000/svg" xmlns:xlink="http://www.w3.org/1999/xlink">
	<desc>
			Created with Pixso.
	</desc>
	<defs>
		<clipPath id="clip48_965">
			<rect id="fire 1" width="80.000000" height="80.000000" fill="white" fill-opacity="0"/>
		</clipPath>
	</defs>
	<rect id="fire 1" width="80.000000" height="80.000000" fill="#FFFFFF" fill-opacity="0"/>
	<g clip-path="url(#clip48_965)">
		<path id="Vector" d="M71.56 27.78L65.18 18.21C64.62 17.37 63.54 16.95 62.56 17.28C61.57 17.56 60.87 18.5 60.87 19.53C60.87 24.12 60.17 28.71 58.85 33.17C57.73 29.93 55.57 27.07 52.62 25.15C47.42 21.68 46.01 14.9 49.48 9.7L53.56 3.6C54.03 2.9 54.07 1.96 53.65 1.21C53.28 0.46 52.48 0 51.59 0C47.46 0 43.57 0.79 39.96 2.24C28.95 6.65 20.98 16.85 20.23 29.28C19.48 27.26 19.06 25.1 19.06 22.9L19.06 13.71C19.06 12.68 18.35 11.75 17.37 11.46C16.39 11.14 15.31 11.56 14.75 12.4L11.6 17.14C5.79 25.85 2.75 35.98 2.75 46.43C2.75 64.95 17.79 80 36.31 80L43.62 80C62.14 80 77.25 64.95 77.25 46.43C77.25 39.78 75.26 33.31 71.56 27.78Z" fill="#FE9923" fill-opacity="1.000000" fill-rule="nonzero"/>
		<path id="Vector" d="M41.98 41.6C41.56 40.81 40.76 40.43 39.96 40.43C39.17 40.43 38.42 40.81 37.95 41.6C28.25 58.43 26 60.59 26 66.03C26 73.71 32.28 80 39.96 80C47.65 80 53.93 73.71 53.93 66.03C53.93 60.07 49.95 55.43 41.98 41.6Z" fill="#FEDB41" fill-opacity="1.000000" fill-rule="nonzero"/>
		<path id="Vector" d="M77.25 46.43C77.25 64.95 62.14 80 43.62 80L39.96 80L39.96 2.24C43.57 0.79 47.46 0 51.59 0C52.48 0 53.28 0.46 53.65 1.21C54.07 1.96 54.03 2.9 53.56 3.6L49.48 9.7C46.01 14.9 47.42 21.68 52.62 25.15C55.57 27.07 57.73 29.93 58.85 33.17C60.17 28.71 60.87 24.12 60.87 19.53C60.87 18.5 61.57 17.56 62.56 17.28C63.54 16.95 64.62 17.37 65.18 18.21L71.56 27.78C75.26 33.31 77.25 39.78 77.25 46.43Z" fill="#FE8821" fill-opacity="1.000000" fill-rule="nonzero"/>
		<path id="Vector" d="M53.93 66.03C53.93 73.71 47.65 80 39.96 80L39.96 40.43C40.76 40.43 41.56 40.81 41.98 41.6C49.95 55.43 53.93 60.07 53.93 66.03Z" fill="#FCBF29" fill-opacity="1.000000" fill-rule="nonzero"/>
	</g>
</svg>
