<svg width="36.000000" height="36.000000" viewBox="0 0 36 36" fill="none" xmlns="http://www.w3.org/2000/svg" xmlns:xlink="http://www.w3.org/1999/xlink">
	<desc>
			Created with Pixso.
	</desc>
	<defs>
		<clipPath id="clip16_135">
			<rect id="Frame" width="36.000000" height="36.000000" fill="white" fill-opacity="0"/>
		</clipPath>
	</defs>
	<rect id="Person, curly haired / 0 - Default" width="36.000000" height="36.000000" fill="#FFFFFF" fill-opacity="0"/>
	<rect id="Frame" width="36.000000" height="36.000000" fill="#FFFFFF" fill-opacity="0"/>
	<g clip-path="url(#clip16_135)">
		<path id="Vector" d="M32 19.88C32 17.67 30.88 15.88 29.5 15.88C29.48 15.88 29.47 15.89 29.46 15.89C27.95 9.58 23.39 5.01 18 5.01C12.6 5.01 8.04 9.59 6.53 15.89C6.52 15.89 6.51 15.88 6.5 15.88C5.11 15.88 4 17.67 4 19.88C4 21.99 5.02 23.7 6.31 23.85C7.53 30.5 12.29 34.38 18 34.38C23.69 34.38 28.46 30.5 29.68 23.85C30.97 23.7 32 21.99 32 19.88Z" fill="#FFDC5D" fill-opacity="1.000000" fill-rule="nonzero"/>
		<path id="Vector" d="M33 12.65C33 11.75 32.53 10.98 31.82 10.54C31.93 10.26 32 9.96 32 9.64C32 8.37 31.04 7.33 29.8 7.18C29.92 6.85 30 6.51 30 6.14C30 4.49 28.65 3.14 27 3.14C26.6 3.14 26.23 3.23 25.88 3.37C25.53 2.09 24.38 1.14 23 1.14C22.13 1.14 21.35 1.52 20.8 2.11C20.38 0.97 19.29 0.14 18 0.14C16.7 0.14 15.61 0.97 15.19 2.11C14.64 1.52 13.86 1.14 13 1.14C11.61 1.14 10.46 2.09 10.11 3.37C9.76 3.23 9.39 3.14 9 3.14C7.34 3.14 6 4.49 6 6.14C6 6.51 6.07 6.85 6.19 7.18C4.95 7.33 4 8.37 4 9.64C4 9.96 4.06 10.26 4.17 10.54C3.46 10.98 3 11.75 3 12.65C3 13.52 3.45 14.29 4.14 14.74C3.52 15.73 3.66 17.34 5.22 17.51C5.13 18.89 6.47 20.03 6.55 18.05C6.6 16.98 6.92 15.61 7.67 14.08C8.86 14.49 10.34 14.31 11.54 13.95C12.75 13.59 13.83 12.95 14.08 12.76C14.46 14.12 16.07 15.15 18 15.15C19.29 15.15 20.79 14.8 21.52 14.08C22 15.34 23.7 16.04 25.53 16.04C26.61 16.04 28.07 15.63 28.78 15.11C29.07 15.9 29.34 16.49 29.32 17.69C29.29 20.04 30.34 19.15 30.79 17.56C32.21 17.57 32.48 15.82 31.85 14.74C32.54 14.29 33 13.52 33 12.65Z" fill="#FFAC33" fill-opacity="1.000000" fill-rule="nonzero"/>
		<path id="Vector" d="M18 31C15.65 31 14.42 29.84 14.29 29.7C13.9 29.31 13.9 28.68 14.29 28.29C14.67 27.9 15.3 27.9 15.69 28.28C15.74 28.33 16.5 29 18 29C19.51 29 20.27 28.31 20.3 28.28C20.7 27.9 21.33 27.91 21.71 28.31C22.09 28.7 22.09 29.32 21.7 29.7C21.57 29.84 20.34 31 18 31ZM19 26L17 26C16.44 26 16 25.55 16 25C16 24.44 16.44 24 17 24L19 24C19.55 24 20 24.44 20 25C20 25.55 19.55 26 19 26Z" fill="#C1694F" fill-opacity="1.000000" fill-rule="nonzero"/>
		<path id="Vector" d="M13 22C12.44 22 12 21.55 12 21L12 19C12 18.44 12.44 18 13 18C13.55 18 14 18.44 14 19L14 21C14 21.55 13.55 22 13 22ZM23 22C22.44 22 22 21.55 22 21L22 19C22 18.44 22.44 18 23 18C23.55 18 24 18.44 24 19L24 21C24 21.55 23.55 22 23 22Z" fill="#662113" fill-opacity="1.000000" fill-rule="nonzero"/>
	</g>
</svg>
