<svg width="20.000000" height="20.000000" viewBox="0 0 20 20" fill="none" xmlns="http://www.w3.org/2000/svg" xmlns:xlink="http://www.w3.org/1999/xlink">
	<desc>
			Created with Pixso.
	</desc>
	<defs>
		<clipPath id="clip15_9">
			<rect id="message 1" width="20.000000" height="20.000000" fill="white" fill-opacity="0"/>
		</clipPath>
	</defs>
	<rect id="message 1" width="20.000000" height="20.000000" fill="#FFFFFF" fill-opacity="0"/>
	<g clip-path="url(#clip15_9)">
		<path id="Vector" d="M18.24 3.14L1.75 3.14C0.78 3.14 0 3.93 0 4.9L0 15.09C0 16.06 0.78 16.85 1.75 16.85L18.24 16.85C19.21 16.85 20 16.06 20 15.09L20 4.9C20 3.93 19.21 3.14 18.24 3.14ZM18.01 4.32L17.77 4.51L10.69 10.41C10.29 10.74 9.7 10.74 9.3 10.41L2.22 4.51L1.98 4.32L18.01 4.32ZM1.17 5.16L6.94 9.97L1.17 13.81L1.17 5.16ZM18.24 15.67L1.75 15.67C1.47 15.67 1.23 15.47 1.18 15.21L7.88 10.75L8.55 11.31C8.97 11.66 9.48 11.83 10 11.83C10.51 11.83 11.02 11.66 11.44 11.31L12.11 10.75L18.81 15.21C18.76 15.47 18.52 15.67 18.24 15.67ZM18.82 13.81L13.05 9.97L18.82 5.16L18.82 13.81Z" fill="#8B5D9A" fill-opacity="1.000000" fill-rule="nonzero"/>
	</g>
</svg>
