<svg width="30.000000" height="30.000000" viewBox="0 0 30 30" fill="none" xmlns="http://www.w3.org/2000/svg" xmlns:xlink="http://www.w3.org/1999/xlink">
	<desc>
			Created with Pixso.
	</desc>
	<defs>
		<clipPath id="clip52_1014">
			<rect id="camera 3" width="30.000000" height="30.000000" fill="white" fill-opacity="0"/>
		</clipPath>
	</defs>
	<rect id="camera 3" width="30.000000" height="30.000000" fill="#FFFFFF" fill-opacity="0"/>
	<g clip-path="url(#clip52_1014)">
		<path id="Vector" d="M29 6.87C28.4 6.24 27.57 5.87 26.63 5.87L21.9 5.87L21.9 5.81C21.9 5.1 21.61 4.42 21.13 3.96C20.64 3.47 19.99 3.19 19.27 3.19L10.72 3.19C9.98 3.19 9.32 3.47 8.83 3.96C8.35 4.44 8.07 5.1 8.07 5.81L8.07 5.87L3.36 5.87C2.42 5.87 1.59 6.24 0.99 6.87C0.39 7.47 0 8.32 0 9.23L0 23.44C0 24.38 0.37 25.2 0.99 25.8C1.59 26.4 2.45 26.8 3.36 26.8L26.63 26.8C27.57 26.8 28.4 26.43 29 25.8C29.6 25.2 30 24.35 30 23.44L30 9.23C30 8.29 29.62 7.47 29 6.87ZM28.51 23.44L28.48 23.44C28.48 23.95 28.28 24.41 27.94 24.75C27.6 25.09 27.14 25.29 26.63 25.29L3.36 25.29C2.85 25.29 2.39 25.09 2.05 24.75C1.71 24.41 1.51 23.95 1.51 23.44L1.51 9.23C1.51 8.72 1.71 8.26 2.05 7.92C2.39 7.58 2.85 7.38 3.36 7.38L8.86 7.38C9.29 7.38 9.63 7.04 9.63 6.61L9.63 5.78C9.63 5.47 9.75 5.19 9.95 4.99C10.15 4.79 10.43 4.67 10.75 4.67L19.27 4.67C19.59 4.67 19.87 4.79 20.07 4.99C20.27 5.19 20.39 5.47 20.39 5.78L20.39 6.61C20.39 7.04 20.73 7.38 21.16 7.38L26.66 7.38C27.17 7.38 27.63 7.58 27.97 7.92C28.31 8.26 28.51 8.72 28.51 9.23L28.51 23.44Z" fill="#925FA4" fill-opacity="1.000000" fill-rule="nonzero"/>
		<path id="Vector" d="M15 9.32C13.06 9.32 11.29 10.12 10.03 11.37C8.75 12.66 7.98 14.4 7.98 16.34C7.98 18.27 8.78 20.04 10.03 21.3C11.32 22.58 13.06 23.35 15 23.35C16.93 23.35 18.7 22.55 19.96 21.3C21.24 20.01 22.01 18.27 22.01 16.34C22.01 14.4 21.21 12.63 19.96 11.37C18.7 10.12 16.93 9.32 15 9.32ZM18.87 20.24C17.87 21.21 16.51 21.84 15 21.84C13.48 21.84 12.11 21.21 11.12 20.24C10.12 19.24 9.52 17.88 9.52 16.36C9.52 14.85 10.15 13.48 11.12 12.49C12.11 11.49 13.48 10.89 15 10.89C16.51 10.89 17.87 11.52 18.87 12.49C19.87 13.48 20.47 14.85 20.47 16.36C20.5 17.88 19.87 19.24 18.87 20.24Z" fill="#925FA4" fill-opacity="1.000000" fill-rule="nonzero"/>
		<path id="Vector" d="M26.54 10.69C26.54 11.46 25.92 12.09 25.15 12.09C24.37 12.09 23.75 11.46 23.75 10.69C23.75 9.92 24.37 9.29 25.15 9.29C25.92 9.29 26.54 9.92 26.54 10.69Z" fill="#925FA4" fill-opacity="1.000000" fill-rule="evenodd"/>
	</g>
</svg>
