<svg width="20.000000" height="20.000000" viewBox="0 0 20 20" fill="none" xmlns="http://www.w3.org/2000/svg" xmlns:xlink="http://www.w3.org/1999/xlink">
	<desc>
			Created with Pixso.
	</desc>
	<defs>
		<clipPath id="clip52_1143">
			<rect id="eye 1" width="20.000000" height="20.000000" fill="white" fill-opacity="0"/>
		</clipPath>
	</defs>
	<rect id="eye 1" width="20.000000" height="20.000000" fill="#FFFFFF" fill-opacity="0"/>
	<g clip-path="url(#clip52_1143)">
		<path id="Vector" d="M19.85 9.6C19.67 9.41 15.37 4.72 10 4.72C4.62 4.72 0.32 9.41 0.14 9.6C-0.05 9.83 -0.05 10.16 0.14 10.39C0.32 10.59 4.62 15.27 10 15.27C15.37 15.27 19.67 10.59 19.85 10.39C20.04 10.16 20.04 9.83 19.85 9.6ZM10 14.1C7.73 14.1 5.89 12.26 5.89 10C5.89 7.73 7.73 5.89 10 5.89C12.26 5.89 14.1 7.73 14.1 10C14.1 12.26 12.26 14.1 10 14.1Z" fill="#8B5D9A" fill-opacity="1.000000" fill-rule="nonzero"/>
		<path id="Vector" d="M10.58 8.82C10.58 8.23 10.87 7.72 11.32 7.4C10.92 7.19 10.47 7.07 10 7.07C8.38 7.07 7.07 8.38 7.07 10C7.07 11.61 8.38 12.92 10 12.92C11.44 12.92 12.64 11.87 12.87 10.49C11.69 10.87 10.58 9.98 10.58 8.82Z" fill="#8B5D9A" fill-opacity="1.000000" fill-rule="nonzero"/>
	</g>
</svg>
