<svg width="1920.000122" height="1080.000000" viewBox="0 0 1920 1080" fill="none" xmlns="http://www.w3.org/2000/svg" xmlns:xlink="http://www.w3.org/1999/xlink">
	<desc>
			Created with Pixso.
	</desc>
	<defs>
		<filter id="filter_24_747_dd" x="241.000000" y="198.000000" width="1462.000000" height="1462.000000" filterUnits="userSpaceOnUse" color-interpolation-filters="sRGB">
			<feFlood flood-opacity="0" result="BackgroundImageFix"/>
			<feBlend mode="normal" in="SourceGraphic" in2="BackgroundImageFix" result="shape"/>
			<feGaussianBlur stdDeviation="100" result="effect_layerBlur_1"/>
		</filter>
		<filter id="filter_24_744_dd" x="1383.999756" y="385.000000" width="1060.000244" height="882.000000" filterUnits="userSpaceOnUse" color-interpolation-filters="sRGB">
			<feFlood flood-opacity="0" result="BackgroundImageFix"/>
			<feColorMatrix in="SourceAlpha" type="matrix" values="0 0 0 0 0 0 0 0 0 0 0 0 0 0 0 0 0 0 127 0" result="hardAlpha"/>
			<feOffset dx="0" dy="20"/>
			<feGaussianBlur stdDeviation="10"/>
			<feComposite in2="hardAlpha" operator="out" k2="-1" k3="1"/>
			<feColorMatrix type="matrix" values="0 0 0 0 0.70196 0 0 0 0 0.13333 0 0 0 0 0.12157 0 0 0 0.2 0"/>
			<feBlend mode="normal" in2="BackgroundImageFix" result="effect_dropShadow_1"/>
			<feBlend mode="normal" in="SourceGraphic" in2="effect_dropShadow_1" result="shape"/>
		</filter>
		<filter id="filter_24_745_dd" x="-653.373169" y="98.247131" width="1116.258911" height="1215.282959" filterUnits="userSpaceOnUse" color-interpolation-filters="sRGB">
			<feFlood flood-opacity="0" result="BackgroundImageFix"/>
			<feColorMatrix in="SourceAlpha" type="matrix" values="0 0 0 0 0 0 0 0 0 0 0 0 0 0 0 0 0 0 127 0" result="hardAlpha"/>
			<feOffset dx="0" dy="20"/>
			<feGaussianBlur stdDeviation="10"/>
			<feComposite in2="hardAlpha" operator="out" k2="-1" k3="1"/>
			<feColorMatrix type="matrix" values="0 0 0 0 0.70196 0 0 0 0 0.13333 0 0 0 0 0.12157 0 0 0 0.2 0"/>
			<feBlend mode="normal" in2="BackgroundImageFix" result="effect_dropShadow_1"/>
			<feBlend mode="normal" in="SourceGraphic" in2="effect_dropShadow_1" result="shape"/>
		</filter>
		<filter id="filter_2_9_dd" x="740.000000" y="698.000000" width="440.000000" height="130.000000" filterUnits="userSpaceOnUse" color-interpolation-filters="sRGB">
			<feFlood flood-opacity="0" result="BackgroundImageFix"/>
			<feColorMatrix in="SourceAlpha" type="matrix" values="0 0 0 0 0 0 0 0 0 0 0 0 0 0 0 0 0 0 127 0" result="hardAlpha"/>
			<feOffset dx="0" dy="20"/>
			<feGaussianBlur stdDeviation="10"/>
			<feComposite in2="hardAlpha" operator="out" k2="-1" k3="1"/>
			<feColorMatrix type="matrix" values="0 0 0 0 0.70196 0 0 0 0 0.13333 0 0 0 0 0.12157 0 0 0 0.2 0"/>
			<feBlend mode="normal" in2="BackgroundImageFix" result="effect_dropShadow_1"/>
			<feBlend mode="normal" in="SourceGraphic" in2="effect_dropShadow_1" result="shape"/>
		</filter>
		<clipPath id="clip5_21">
			<rect id="eye 1" width="20.000000" height="20.000000" transform="translate(1100.000000 653.000000)" fill="white" fill-opacity="0"/>
		</clipPath>
		<clipPath id="clip17_28">
			<rect id="password 1" width="20.000000" height="20.000000" transform="translate(800.000000 653.000000)" fill="white" fill-opacity="0"/>
		</clipPath>
		<clipPath id="clip15_9">
			<rect id="message 1" width="20.000000" height="20.000000" transform="translate(800.000000 572.000000)" fill="white" fill-opacity="0"/>
		</clipPath>
		<clipPath id="clip17_4433">
			<rect id="love-birds 1" width="60.000000" height="60.000000" transform="translate(370.000000 80.000000)" fill="white" fill-opacity="0"/>
		</clipPath>
		<clipPath id="clip2_63">
			<rect id="united-states 1" width="26.000000" height="26.000000" transform="translate(1028.000000 12.000000)" fill="white" fill-opacity="0"/>
		</clipPath>
		<clipPath id="clip0_3">
			<rect id="01.log in" width="1920.000000" height="1080.000000" fill="white" fill-opacity="0"/>
		</clipPath>
		<linearGradient x1="1414.000000" y1="806.000000" x2="2414.000000" y2="806.000000" id="paint_linear_24_744_0" gradientUnits="userSpaceOnUse">
			<stop stop-color="#EE0979"/>
			<stop offset="1.000000" stop-color="#FF6A00"/>
		</linearGradient>
		<linearGradient x1="-486.702881" y1="273.685303" x2="319.935669" y2="996.335449" id="paint_linear_24_745_0" gradientUnits="userSpaceOnUse">
			<stop stop-color="#EE0979"/>
			<stop offset="1.000000" stop-color="#FF6A00"/>
		</linearGradient>
		<linearGradient x1="770.000000" y1="743.000000" x2="1150.000000" y2="743.000000" id="paint_linear_2_9_0" gradientUnits="userSpaceOnUse">
			<stop stop-color="#EE0979"/>
			<stop offset="1.000000" stop-color="#FF6A00"/>
		</linearGradient>
		<linearGradient x1="1378.000000" y1="110.000000" x2="1550.000000" y2="110.000000" id="paint_linear_17_4438_0" gradientUnits="userSpaceOnUse">
			<stop stop-color="#EE0979"/>
			<stop offset="1.000000" stop-color="#FF6A00"/>
		</linearGradient>
		<linearGradient x1="390.098328" y1="93.763016" x2="409.901978" y2="93.763016" id="paint_linear_17_4434_0" gradientUnits="userSpaceOnUse">
			<stop stop-color="#EE0979"/>
			<stop offset="1.000000" stop-color="#FF6A00"/>
		</linearGradient>
		<linearGradient x1="370.000000" y1="118.235168" x2="430.000000" y2="118.235168" id="paint_linear_17_4435_0" gradientUnits="userSpaceOnUse">
			<stop stop-color="#EE0979"/>
			<stop offset="1.000000" stop-color="#FF6A00"/>
		</linearGradient>
	</defs>
	<rect id="01.log in" width="1920.000000" height="1080.000000" fill="#230E2B" fill-opacity="1.000000"/>
	<g clip-path="url(#clip0_3)">
		<g filter="url(#filter_24_747_dd)">
			<circle id="Ellipse 10" cx="972.000000" cy="929.000000" r="431.000000" fill="#381A42" fill-opacity="1.000000"/>
		</g>
		<g filter="url(#filter_24_744_dd)">
			<path id="Vector" d="M1914.81 397.7C1997.04 404.57 2070.22 437.2 2143.64 474.85C2231.68 519.99 2338.93 549.16 2383.02 637.75C2428.97 730.08 2421.76 847.63 2374.88 939.5C2330.73 1026.09 2227.47 1055.72 2144.23 1105.86C2069.65 1150.78 2001.64 1222.76 1914.81 1216.63C1829.33 1210.6 1770.48 1133.48 1707.77 1075.04C1652.97 1023.97 1616.28 963.05 1575.34 900.3C1516.39 809.96 1397.44 734.07 1415.93 627.78C1434.02 523.81 1560.64 478.33 1656.43 434.15C1737.4 396.81 1825.96 390.28 1914.81 397.7Z" fill="url(#paint_linear_24_744_0)" fill-opacity="1.000000" fill-rule="evenodd"/>
		</g>
		<g filter="url(#filter_24_745_dd)">
			<path id="Vector" d="M297.99 312.98C365.86 384.18 366.97 490.37 387.69 586.52C408.41 682.7 456.84 782.13 418.63 872.78C380.24 963.85 269.82 991.58 191.52 1051.88C97.02 1124.64 30.95 1279.6 -87.05 1262.17C-206.51 1244.53 -207.92 1058.65 -299.06 979.42C-392.67 898.04 -574.69 919.34 -615.96 802.37C-656.23 688.25 -521.47 589.2 -476.39 476.91C-428.92 358.65 -456.77 189.33 -345.17 127.8C-233.2 66.08 -101.34 167.02 21.54 202.4C119.31 230.55 227.79 239.34 297.99 312.98Z" fill="url(#paint_linear_24_745_0)" fill-opacity="1.000000" fill-rule="evenodd"/>
		</g>
	</g>
</svg>
