<svg width="39.000000" height="26.000000" viewBox="0 0 39 26" fill="none" xmlns="http://www.w3.org/2000/svg" xmlns:xlink="http://www.w3.org/1999/xlink">
	<desc>
			Created with Pixso.
	</desc>
	<defs>
		<clipPath id="clip17_3439">
			<rect id="bell 1" width="20.000000" height="20.000000" transform="translate(0.000000 6.000000)" fill="white" fill-opacity="0"/>
		</clipPath>
		<linearGradient x1="12.000000" y1="7.500000" x2="39.000000" y2="7.500000" id="paint_linear_17_3445_0" gradientUnits="userSpaceOnUse">
			<stop stop-color="#EE0979"/>
			<stop offset="1.000000" stop-color="#FF6A00"/>
		</linearGradient>
	</defs>
	<rect id="bell 1" width="20.000000" height="20.000000" transform="translate(0.000000 6.000000)" fill="#FFFFFF" fill-opacity="0"/>
	<g clip-path="url(#clip17_3439)">
		<path id="Vector" d="M17.81 20.09C16.55 19.02 15.83 17.47 15.83 15.82L15.83 13.5C15.83 10.56 13.65 8.14 10.83 7.73L10.83 6.83C10.83 6.37 10.46 6 10 6C9.54 6 9.16 6.37 9.16 6.83L9.16 7.73C6.34 8.14 4.16 10.56 4.16 13.5L4.16 15.82C4.16 17.47 3.44 19.02 2.17 20.1C1.85 20.37 1.66 20.78 1.66 21.2C1.66 22.01 2.32 22.66 3.12 22.66L16.87 22.66C17.67 22.66 18.33 22.01 18.33 21.2C18.33 20.78 18.14 20.37 17.81 20.09Z" fill="#925FA4" fill-opacity="1.000000" fill-rule="nonzero"/>
		<path id="Vector" d="M10 26C11.5 26 12.77 24.92 13.06 23.5L6.93 23.5C7.22 24.92 8.49 26 10 26Z" fill="#925FA4" fill-opacity="1.000000" fill-rule="nonzero"/>
	</g>
	<rect id="Rectangle 14" x="12.000000" rx="7.500000" width="27.000000" height="15.000000" fill="url(#paint_linear_17_3445_0)" fill-opacity="1.000000"/>
	<path id="123" d="M22.15 10.93C22.19 10.97 22.25 11 22.32 11L27.1 11C27.17 11 27.23 10.97 27.27 10.93C27.31 10.88 27.34 10.82 27.34 10.76L27.34 10.05C27.34 9.97 27.31 9.91 27.27 9.87C27.23 9.83 27.17 9.81 27.1 9.81L24.24 9.81L25.67 8.37C25.98 8.11 26.26 7.86 26.48 7.62Q26.83 7.25 27 6.86C27.12 6.6 27.18 6.31 27.18 6Q27.18 5.51 27.01 5.11Q26.96 5.01 26.91 4.92C26.73 4.6 26.45 4.34 26.09 4.16C25.73 3.97 25.27 3.88 24.72 3.88Q24.13 3.88 23.65 4.07C23.34 4.19 23.08 4.36 22.86 4.57C22.64 4.78 22.48 5.02 22.36 5.29C22.25 5.56 22.19 5.84 22.18 6.12C22.18 6.18 22.2 6.23 22.25 6.27C22.29 6.31 22.34 6.32 22.39 6.32L23.29 6.32C23.35 6.32 23.41 6.31 23.47 6.28C23.53 6.24 23.56 6.18 23.58 6.1C23.61 5.9 23.67 5.72 23.76 5.57C23.85 5.41 23.98 5.28 24.13 5.18C24.29 5.08 24.49 5.04 24.73 5.04C25.08 5.04 25.34 5.13 25.5 5.32C25.66 5.5 25.75 5.74 25.75 6.04Q25.75 6.34 25.56 6.65C25.44 6.85 25.24 7.08 24.97 7.32Q24.56 7.68 23.91 8.2L22.33 9.77C22.22 9.86 22.15 9.95 22.12 10.03C22.09 10.11 22.07 10.19 22.07 10.25L22.07 10.76C22.07 10.82 22.1 10.88 22.15 10.93ZM19.59 10.93C19.63 10.97 19.69 11 19.77 11L20.67 11C20.74 11 20.8 10.97 20.85 10.93C20.89 10.88 20.92 10.82 20.92 10.76L20.92 4.23Q20.92 4.18 20.9 4.14Q20.88 4.1 20.85 4.07C20.8 4.02 20.74 4 20.67 4L19.8 4Q19.72 4 19.66 4.01C19.62 4.01 19.58 4.03 19.54 4.06L17.31 5.79Q17.25 5.83 17.22 5.88Q17.21 5.92 17.2 5.96C17.19 6.02 17.2 6.09 17.24 6.14L17.66 6.69C17.71 6.74 17.76 6.78 17.83 6.79C17.89 6.8 17.95 6.79 18.01 6.74L19.52 5.58L19.52 10.76C19.52 10.82 19.55 10.88 19.59 10.93ZM29.71 10.93C30.05 11.04 30.46 11.1 30.93 11.1C31.46 11.1 31.93 11.01 32.34 10.84C32.76 10.66 33.08 10.41 33.32 10.09C33.56 9.77 33.67 9.38 33.67 8.92C33.67 8.49 33.59 8.13 33.41 7.85C33.23 7.56 32.99 7.34 32.67 7.19C32.35 7.04 31.99 6.95 31.58 6.92L31.46 6.91L33.2 5.13C33.23 5.09 33.26 5.05 33.28 5.01C33.31 4.96 33.33 4.91 33.33 4.85L33.33 4.24C33.33 4.17 33.3 4.11 33.25 4.07C33.21 4.02 33.15 4 33.07 4L28.78 4Q28.71 4 28.65 4.03Q28.63 4.04 28.61 4.07C28.57 4.11 28.55 4.17 28.55 4.24L28.55 4.91C28.55 4.97 28.57 5.03 28.61 5.08C28.65 5.12 28.71 5.15 28.78 5.15L31.65 5.15L29.86 6.9C29.82 6.93 29.79 6.97 29.76 7.02Q29.76 7.02 29.76 7.03Q29.71 7.1 29.71 7.2L29.71 7.62Q29.71 7.69 29.75 7.75Q29.76 7.77 29.79 7.79C29.83 7.83 29.89 7.86 29.97 7.86L31 7.86C31.39 7.86 31.69 7.93 31.91 8.09C32.14 8.25 32.25 8.5 32.25 8.85C32.25 9.21 32.13 9.48 31.89 9.67C31.65 9.86 31.34 9.95 30.94 9.95Q30.63 9.95 30.36 9.89C30.18 9.85 30.03 9.77 29.89 9.67C29.75 9.56 29.66 9.42 29.59 9.23C29.56 9.15 29.52 9.1 29.48 9.08C29.43 9.05 29.37 9.03 29.3 9.03L28.41 9.03C28.35 9.03 28.29 9.05 28.25 9.09C28.21 9.13 28.19 9.17 28.19 9.23C28.19 9.45 28.25 9.66 28.36 9.88Q28.54 10.2 28.87 10.48C29.09 10.66 29.37 10.81 29.71 10.93Z" fill="#FFFFFF" fill-opacity="1.000000" fill-rule="evenodd"/>
</svg>
