<svg width="20.000000" height="20.000000" viewBox="0 0 20 20" fill="none" xmlns="http://www.w3.org/2000/svg" xmlns:xlink="http://www.w3.org/1999/xlink">
	<desc>
			Created with Pixso.
	</desc>
	<defs>
		<clipPath id="clip52_965">
			<rect id="wallet 1" width="20.000000" height="20.000000" fill="white" fill-opacity="0"/>
		</clipPath>
	</defs>
	<rect id="wallet 1" width="20.000000" height="20.000000" fill="#FFFFFF" fill-opacity="0"/>
	<g clip-path="url(#clip52_965)">
		<path id="XMLID_436_" d="M18.75 15L18.75 16.56C18.75 17.42 18.04 18.12 17.18 18.12L3.75 18.12C2.37 18.12 1.25 17 1.25 15.62C1.25 15.62 1.25 5 1.25 5C1.25 3.62 2.37 2.5 3.75 2.5L15.31 2.5C15.83 2.5 16.25 2.92 16.25 3.43C16.25 3.95 15.83 4.37 15.31 4.37L3.75 4.37C3.4 4.37 3.12 4.65 3.12 5C3.12 5.34 3.4 5.62 3.75 5.62L17.18 5.62C18.04 5.62 18.75 6.32 18.75 7.18L18.75 8.75L15.62 8.75C13.9 8.75 12.5 10.15 12.5 11.87C12.5 13.59 13.9 15 15.62 15L18.75 15Z" fill="#42204E" fill-opacity="1.000000" fill-rule="nonzero"/>
		<path id="XMLID_438_" d="M18.75 10L18.75 13.75L15.62 13.75C14.58 13.75 13.75 12.91 13.75 11.87C13.75 10.83 14.58 10 15.62 10L18.75 10Z" fill="#42204E" fill-opacity="1.000000" fill-rule="nonzero"/>
	</g>
</svg>
