<svg width="20.000000" height="20.000000" viewBox="0 0 20 20" fill="none" xmlns="http://www.w3.org/2000/svg" xmlns:xlink="http://www.w3.org/1999/xlink">
	<desc>
			Created with Pixso.
	</desc>
	<defs>
		<clipPath id="clip52_956">
			<rect id="bookmark 2" width="20.000000" height="20.000000" fill="white" fill-opacity="0"/>
		</clipPath>
	</defs>
	<rect id="bookmark 2" width="20.000000" height="20.000000" fill="#FFFFFF" fill-opacity="0"/>
	<g clip-path="url(#clip52_956)">
		<path id="Vector" d="M15.83 0L4.22 0C3.28 0 2.45 0.77 2.45 1.69L2.45 18.86C2.45 19.17 2.53 19.42 2.67 19.62C2.84 19.86 3.1 20 3.39 20C3.66 20 3.95 19.87 4.21 19.65L9.4 15.24C9.56 15.1 9.79 15.02 10.03 15.02C10.27 15.02 10.5 15.1 10.66 15.24L15.84 19.65C16.1 19.87 16.37 20 16.64 20C17.09 20 17.54 19.64 17.54 18.86L17.54 1.69C17.54 0.77 16.77 0 15.83 0Z" fill="#42204E" fill-opacity="1.000000" fill-rule="nonzero"/>
	</g>
</svg>
