<svg width="20.000000" height="20.000000" viewBox="0 0 20 20" fill="none" xmlns="http://www.w3.org/2000/svg" xmlns:xlink="http://www.w3.org/1999/xlink">
	<desc>
			Created with Pixso.
	</desc>
	<defs>
		<clipPath id="clip52_976">
			<rect id="logout 1" width="20.000000" height="20.000000" fill="white" fill-opacity="0"/>
		</clipPath>
	</defs>
	<rect id="logout 1" width="20.000000" height="20.000000" fill="#FFFFFF" fill-opacity="0"/>
	<g clip-path="url(#clip52_976)">
		<path id="path823" d="M2.65 0.63C1.6 0.55 0.62 1.39 0.62 2.49L0.62 17.52C0.62 18.57 1.5 19.43 2.56 19.4C2.56 19.4 2.56 19.4 2.56 19.4C2.74 19.39 2.92 19.36 3.1 19.3L6.85 18.05C7.61 17.79 8.13 17.08 8.13 16.27L8.13 14.39L7.51 14.39C5.8 14.39 4.38 12.96 4.38 11.26L4.38 8.76C4.38 7.05 5.8 5.63 7.51 5.63L8.13 5.63L8.13 3.75C8.13 2.94 7.61 2.22 6.85 1.97L3.1 0.72C2.95 0.67 2.8 0.64 2.65 0.63ZM12.66 4.39C12.33 4.37 11.99 4.45 11.69 4.6C11.08 4.9 10.63 5.5 10.63 6.25L10.63 6.88L7.51 6.88C6.48 6.88 5.63 7.73 5.63 8.76L5.63 11.26C5.63 12.29 6.48 13.14 7.51 13.14L10.63 13.14L10.63 13.76C10.63 15.27 12.43 16.17 13.64 15.27L18.65 11.51C19.14 11.14 19.42 10.57 19.4 9.96C19.38 9.39 19.11 8.85 18.65 8.51L13.64 4.75C13.34 4.52 13 4.41 12.66 4.39Z" fill="#42204E" fill-opacity="1.000000" fill-rule="nonzero"/>
	</g>
</svg>
