<svg width="36.000000" height="36.000000" viewBox="0 0 36 36" fill="none" xmlns="http://www.w3.org/2000/svg" xmlns:xlink="http://www.w3.org/1999/xlink">
	<desc>
			Created with Pixso.
	</desc>
	<defs>
		<clipPath id="clip16_101">
			<rect id="Frame" width="36.000000" height="36.000000" fill="white" fill-opacity="0"/>
		</clipPath>
	</defs>
	<rect id="Woman, red haired / 0 - Default" width="36.000000" height="36.000000" fill="#FFFFFF" fill-opacity="0"/>
	<rect id="Frame" width="36.000000" height="36.000000" fill="#FFFFFF" fill-opacity="0"/>
	<g clip-path="url(#clip16_101)">
		<path id="Vector" d="M18 3C24 3 34 6 34 19C34 32 34 35 31 35C28 35 24 32 18 32C12 32 8.08 35 5 35C1.65 35 2 23 2 19C2 6 12 3 18 3Z" fill="#E95F28" fill-opacity="1.000000" fill-rule="nonzero"/>
		<path id="Vector" d="M6 18.56C6 10.03 11.37 3.12 18 3.12C24.62 3.12 30 10.03 30 18.56C30 27.08 24.62 34 18 34C11.37 34 6 27.08 6 18.56Z" fill="#FFDC5D" fill-opacity="1.000000" fill-rule="nonzero"/>
		<path id="Vector" d="M18 30C15.65 30 14.42 28.84 14.29 28.7C13.9 28.31 13.9 27.68 14.29 27.29C14.67 26.9 15.3 26.9 15.69 27.28C15.74 27.33 16.5 28 18 28C19.51 28 20.27 27.31 20.3 27.28C20.7 26.9 21.33 26.91 21.71 27.31C22.09 27.7 22.09 28.32 21.7 28.7C21.57 28.84 20.34 30 18 30Z" fill="#DF1F32" fill-opacity="1.000000" fill-rule="nonzero"/>
		<path id="Vector" d="M19 25L17 25C16.44 25 16 24.55 16 24C16 23.44 16.44 23 17 23L19 23C19.55 23 20 23.44 20 24C20 24.55 19.55 25 19 25Z" fill="#C1694F" fill-opacity="1.000000" fill-rule="nonzero"/>
		<path id="Vector" d="M3.06 24C3.03 23.67 3 23.35 3 23C3 18 6 23.56 6 20C6 16.43 8 16 10 14L13 11C13 11 18 14 22 14C26 14 30 16 30 20C30 24 33 18 33 23C33 23.35 32.96 23.67 32.94 24L33.99 24C34 22.52 34 20.86 34 19C34 6 24 1 18 1C12 1 2 6 2 19C2 20.15 1.97 21.98 2.01 24L3.06 24Z" fill="#E95F28" fill-opacity="1.000000" fill-rule="nonzero"/>
		<path id="Vector" d="M13 22C12.44 22 12 21.55 12 21L12 19C12 18.44 12.44 18 13 18C13.55 18 14 18.44 14 19L14 21C14 21.55 13.55 22 13 22ZM23 22C22.44 22 22 21.55 22 21L22 19C22 18.44 22.44 18 23 18C23.55 18 24 18.44 24 19L24 21C24 21.55 23.55 22 23 22Z" fill="#662113" fill-opacity="1.000000" fill-rule="nonzero"/>
	</g>
</svg>
