<svg width="20.000000" height="20.000000" viewBox="0 0 20 20" fill="none" xmlns="http://www.w3.org/2000/svg" xmlns:xlink="http://www.w3.org/1999/xlink">
	<desc>
			Created with Pixso.
	</desc>
	<defs>
		<clipPath id="clip9_7">
			<rect id="Frame" width="20.000000" height="20.000000" fill="white" fill-opacity="0"/>
		</clipPath>
	</defs>
	<rect id="Waving hand / 0 - Default" width="20.000000" height="20.000000" fill="#FFFFFF" fill-opacity="0"/>
	<rect id="Frame" width="20.000000" height="20.000000" fill="#FFFFFF" fill-opacity="0"/>
	<g clip-path="url(#clip9_7)">
		<path id="Vector" d="M2.7 5.08C3.22 4.71 4.01 4.78 4.47 5.17L3.94 4.39C3.5 3.77 3.66 3.1 4.28 2.67C4.89 2.24 6.64 3.4 6.64 3.4C6.21 2.77 6.29 1.98 6.91 1.55C7.54 1.11 8.4 1.26 8.83 1.89L14.62 10.06L13.88 17.22L7.73 14.97L2.36 7.01C1.92 6.38 2.07 5.52 2.7 5.08Z" fill="#EF9645" fill-opacity="1.000000" fill-rule="nonzero"/>
		<path id="Vector" d="M1.49 9.63C1.49 9.63 0.86 8.71 1.78 8.08C2.7 7.45 3.33 8.37 3.33 8.37L6.24 12.62C6.34 12.46 6.45 12.29 6.58 12.13L2.53 6.22C2.53 6.22 1.9 5.31 2.82 4.68C3.73 4.05 4.36 4.97 4.36 4.97L8.17 10.52C8.31 10.4 8.45 10.29 8.6 10.17L4.19 3.73C4.19 3.73 3.56 2.82 4.48 2.19C5.39 1.56 6.02 2.48 6.02 2.48L10.44 8.92C10.6 8.82 10.76 8.73 10.92 8.64L6.79 2.62C6.79 2.62 6.17 1.71 7.08 1.08C8 0.45 8.63 1.37 8.63 1.37L12.99 7.73L13.65 8.7C10.9 10.58 10.64 14.13 12.21 16.42C12.53 16.88 12.99 16.56 12.99 16.56C11.1 13.82 11.68 10.73 14.43 8.84L13.61 4.78C13.61 4.78 13.31 3.71 14.38 3.41C15.45 3.11 15.75 4.18 15.75 4.18L16.69 6.96C17.06 8.06 17.45 9.16 17.98 10.2C19.45 13.13 18.57 16.78 15.79 18.69C12.75 20.77 8.6 19.99 6.52 16.96L1.49 9.63Z" fill="#FFDC5D" fill-opacity="1.000000" fill-rule="nonzero"/>
		<path id="Vector" d="M6.66 17.8C4.44 17.8 2.19 15.55 2.19 13.33C2.19 13.02 1.97 12.77 1.66 12.77C1.35 12.77 1.08 13.02 1.08 13.33C1.08 16.66 3.33 18.91 6.66 18.91C6.97 18.91 7.22 18.64 7.22 18.33C7.22 18.02 6.97 17.8 6.66 17.8Z" fill="#5DADEC" fill-opacity="1.000000" fill-rule="nonzero"/>
		<path id="Vector" d="M3.88 18.88C2.22 18.88 1.11 17.77 1.11 16.11C1.11 15.8 0.86 15.55 0.55 15.55C0.24 15.55 0 15.8 0 16.11C0 18.33 1.66 20 3.88 20C4.19 20 4.44 19.75 4.44 19.44C4.44 19.13 4.19 18.88 3.88 18.88ZM13.33 1.11C13.02 1.11 12.77 1.35 12.77 1.66C12.77 1.97 13.02 2.22 13.33 2.22C15.55 2.22 17.77 4.21 17.77 6.66C17.77 6.97 18.02 7.22 18.33 7.22C18.64 7.22 18.88 6.97 18.88 6.66C18.88 3.6 16.66 1.11 13.33 1.11Z" fill="#5DADEC" fill-opacity="1.000000" fill-rule="nonzero"/>
		<path id="Vector" d="M16.11 0.02C15.8 0.02 15.55 0.24 15.55 0.55C15.55 0.86 15.8 1.13 16.11 1.13C17.77 1.13 18.86 2.37 18.86 3.88C18.86 4.19 19.13 4.44 19.44 4.44C19.75 4.44 19.97 4.19 19.97 3.88C19.97 1.75 18.33 0.02 16.11 0.02Z" fill="#5DADEC" fill-opacity="1.000000" fill-rule="nonzero"/>
	</g>
</svg>
