<svg width="20.000000" height="20.000000" viewBox="0 0 20 20" fill="none" xmlns="http://www.w3.org/2000/svg" xmlns:xlink="http://www.w3.org/1999/xlink">
	<desc>
			Created with Pixso.
	</desc>
	<defs/>
	<rect id="Icon/favourite full" width="20.000000" height="20.000000" fill="#FFFFFF" fill-opacity="0"/>
	<rect id="Icon/favourite" width="20.000000" height="20.000000" fill="#FFFFFF" fill-opacity="0"/>
	<path id="Shape" d="M10 17.5L8.79 16.42C4.5 12.6 1.66 10.08 1.66 6.99C1.66 4.47 3.68 2.5 6.25 2.5C7.7 2.5 9.09 3.16 10 4.2C10.9 3.16 12.3 2.5 13.75 2.5C16.31 2.5 18.33 4.47 18.33 6.99C18.33 10.08 15.5 12.6 11.2 16.42L10 17.5Z" fill="#FFFFFF" fill-opacity="1.000000" fill-rule="nonzero"/>
	<path id="Shape" d="M8.79 16.42C4.5 12.6 1.66 10.08 1.66 6.99C1.66 4.47 3.68 2.5 6.25 2.5C7.7 2.5 9.09 3.16 10 4.2C10.9 3.16 12.3 2.5 13.75 2.5C16.31 2.5 18.33 4.47 18.33 6.99C18.33 10.08 15.5 12.6 11.2 16.42L10 17.5L8.79 16.42Z" stroke="#FFFFFF" stroke-opacity="1.000000" stroke-width="1.000000"/>
</svg>
