<svg width="60.000000" height="60.000000" viewBox="0 0 60 60" fill="none" xmlns="http://www.w3.org/2000/svg" xmlns:xlink="http://www.w3.org/1999/xlink">
	<desc>
			Created with Pixso.
	</desc>
	<defs>
		<clipPath id="clip17_279">
			<rect id="love-birds 1" width="60.000000" height="60.000000" fill="white" fill-opacity="0"/>
		</clipPath>
		<linearGradient x1="20.098145" y1="13.763031" x2="39.901779" y2="13.763031" id="paint_linear_17_280_0" gradientUnits="userSpaceOnUse">
			<stop stop-color="#EE0979"/>
			<stop offset="1.000000" stop-color="#FF6A00"/>
		</linearGradient>
		<linearGradient x1="0.000000" y1="38.235168" x2="60.000000" y2="38.235168" id="paint_linear_17_281_0" gradientUnits="userSpaceOnUse">
			<stop stop-color="#EE0979"/>
			<stop offset="1.000000" stop-color="#FF6A00"/>
		</linearGradient>
	</defs>
	<rect id="love-birds 1" width="60.000000" height="60.000000" fill="#FFFFFF" fill-opacity="0"/>
	<g clip-path="url(#clip17_279)">
		<path id="Vector" d="M20.93 13.94C21.76 15.46 23.03 16.65 24.15 17.71C24.34 17.88 24.52 18.05 24.7 18.23C25.4 18.9 26.1 19.53 26.77 20.15C27.43 20.75 28.11 21.38 28.78 22.02L30 23.19L31.21 22.02C31.88 21.38 32.56 20.76 33.22 20.15C33.89 19.53 34.59 18.9 35.29 18.23C35.47 18.05 35.65 17.88 35.84 17.71C36.96 16.65 38.23 15.46 39.06 13.94C40.21 11.83 40.17 9.38 38.96 7.39C37.76 5.43 35.89 4.35 33.71 4.33C32.42 4.32 31.15 4.69 30.04 5.39L30 5.42L29.95 5.39C28.85 4.7 27.6 4.33 26.33 4.33C26.31 4.33 26.29 4.33 26.28 4.33C24.1 4.35 22.23 5.43 21.04 7.39C19.82 9.38 19.78 11.83 20.93 13.94Z" fill="url(#paint_linear_17_280_0)" fill-opacity="1.000000" fill-rule="nonzero"/>
		<path id="Vector" d="M52.15 37.1L52.15 31.14C52.15 25.49 47.56 20.9 41.91 20.9C36.5 20.9 32.05 25.11 31.68 30.43L28.31 30.43C27.94 25.11 23.5 20.9 18.08 20.9C12.43 20.9 7.84 25.49 7.84 31.14L7.84 37.1L0 37.1L0 43.45C0 48 3.7 51.7 8.25 51.7L8.75 51.7L8.75 55.56L12.26 55.56L12.26 51.7L15.23 51.7L15.23 55.56L18.74 55.56L18.74 51.68C24.08 51.4 28.33 46.97 28.33 41.57L28.33 33.95L31.66 33.95L31.66 41.57C31.66 46.97 35.91 51.4 41.25 51.68L41.25 55.56L44.76 55.56L44.76 51.7L47.73 51.7L47.73 55.56L51.25 55.56L51.25 51.7L51.74 51.7C56.29 51.7 60 48 60 43.45L60 37.1L52.15 37.1ZM21.59 39.82C21.59 42.75 19.2 45.14 16.27 45.14L13.08 45.14L13.08 41.63L16.27 41.63C17.26 41.63 18.07 40.82 18.07 39.82L18.07 38.05L21.59 38.05L21.59 39.82ZM21.59 32.58L18.07 32.58L18.07 29.07L21.59 29.07L21.59 32.58ZM38.4 29.07L41.92 29.07L41.92 32.58L38.4 32.58L38.4 29.07ZM46.91 45.14L43.72 45.14C40.79 45.14 38.4 42.75 38.4 39.82L38.4 38.05L41.92 38.05L41.92 39.82C41.92 40.82 42.73 41.63 43.72 41.63L46.91 41.63L46.91 45.14Z" fill="url(#paint_linear_17_281_0)" fill-opacity="1.000000" fill-rule="nonzero"/>
	</g>
</svg>
