<svg width="20.000000" height="20.000000" viewBox="0 0 20 20" fill="none" xmlns="http://www.w3.org/2000/svg" xmlns:xlink="http://www.w3.org/1999/xlink">
	<desc>
			Created with Pixso.
	</desc>
	<defs>
		<clipPath id="clip17_4178">
			<rect id="send 1" width="20.000000" height="20.000000" fill="white" fill-opacity="0"/>
		</clipPath>
		<linearGradient x1="0.000000" y1="4.744663" x2="20.000021" y2="4.744663" id="paint_linear_17_4181_0" gradientUnits="userSpaceOnUse">
			<stop stop-color="#EE0979"/>
			<stop offset="1.000000" stop-color="#FF6A00"/>
		</linearGradient>
		<linearGradient x1="0.001953" y1="15.254360" x2="20.000597" y2="15.254360" id="paint_linear_17_4184_0" gradientUnits="userSpaceOnUse">
			<stop stop-color="#EE0979"/>
			<stop offset="1.000000" stop-color="#FF6A00"/>
		</linearGradient>
	</defs>
	<rect id="send 1" width="20.000000" height="20.000000" fill="#FFFFFF" fill-opacity="0"/>
	<g clip-path="url(#clip17_4178)">
		<path id="Vector" d="M18.93 8.1L3.02 0.4C1.97 -0.11 0.71 0.33 0.21 1.38C-0.05 1.91 -0.07 2.53 0.15 3.08L2.63 9.29L20 9.29C19.81 8.77 19.43 8.34 18.93 8.1Z" fill="url(#paint_linear_17_4181_0)" fill-opacity="1.000000" fill-rule="nonzero"/>
		<path id="Vector" d="M2.63 10.7L0.15 16.91C-0.28 17.99 0.25 19.22 1.33 19.65C1.58 19.75 1.84 19.8 2.1 19.8C2.42 19.8 2.74 19.73 3.02 19.59L18.93 11.89C19.43 11.65 19.81 11.22 20 10.7L2.63 10.7Z" fill="url(#paint_linear_17_4184_0)" fill-opacity="1.000000" fill-rule="nonzero"/>
	</g>
</svg>
