<svg width="20.000000" height="20.000000" viewBox="0 0 20 20" fill="none" xmlns="http://www.w3.org/2000/svg" xmlns:xlink="http://www.w3.org/1999/xlink">
	<desc>
			Created with Pixso.
	</desc>
	<defs>
		<clipPath id="clip17_28">
			<rect id="password 1" width="20.000000" height="20.000000" fill="white" fill-opacity="0"/>
		</clipPath>
	</defs>
	<rect id="password 1" width="20.000000" height="20.000000" fill="#FFFFFF" fill-opacity="0"/>
	<g clip-path="url(#clip17_28)">
		<path id="Vector" d="M15.23 13.51C15.23 13.94 14.88 14.29 14.45 14.29C14.02 14.29 13.67 13.94 13.67 13.51C13.67 13.08 14.02 12.73 14.45 12.73C14.88 12.73 15.23 13.08 15.23 13.51Z" fill="#8B5D9A" fill-opacity="1.000000" fill-rule="evenodd"/>
		<path id="Vector" d="M17.96 14.14C18.4 14.14 18.75 13.79 18.75 13.35L18.75 10.46C18.75 8.74 17.34 7.34 15.62 7.34L14.68 7.34L14.68 4.58C14.68 2.05 12.58 0 9.99 0C7.41 0 5.31 2.05 5.31 4.58L5.31 7.34L4.37 7.34C2.65 7.34 1.25 8.74 1.25 10.46L1.25 16.87C1.25 18.59 2.65 20 4.37 20L15.62 20C17.34 20 18.75 18.59 18.75 16.87C18.75 16.44 18.4 16.09 17.96 16.09C17.53 16.09 17.18 16.44 17.18 16.87C17.18 17.73 16.48 18.43 15.62 18.43L4.37 18.43C3.51 18.43 2.81 17.73 2.81 16.87L2.81 10.46C2.81 9.6 3.51 8.9 4.37 8.9L15.62 8.9C16.48 8.9 17.18 9.6 17.18 10.46L17.18 13.35C17.18 13.79 17.53 14.14 17.96 14.14ZM13.12 7.34L6.87 7.34L6.87 4.58C6.87 2.91 8.27 1.56 9.99 1.56C11.72 1.56 13.12 2.91 13.12 4.58L13.12 7.34Z" fill="#8B5D9A" fill-opacity="1.000000" fill-rule="nonzero"/>
		<path id="Vector" d="M9.33 13.51C9.33 13.94 8.98 14.29 8.55 14.29C8.12 14.29 7.77 13.94 7.77 13.51C7.77 13.08 8.12 12.73 8.55 12.73C8.98 12.73 9.33 13.08 9.33 13.51Z" fill="#8B5D9A" fill-opacity="1.000000" fill-rule="evenodd"/>
		<path id="Vector" d="M6.4 13.51C6.4 13.94 6.05 14.29 5.62 14.29C5.19 14.29 4.84 13.94 4.84 13.51C4.84 13.08 5.19 12.73 5.62 12.73C6.05 12.73 6.4 13.08 6.4 13.51Z" fill="#8B5D9A" fill-opacity="1.000000" fill-rule="evenodd"/>
		<path id="Vector" d="M12.26 13.51C12.26 13.94 11.91 14.29 11.48 14.29C11.05 14.29 10.7 13.94 10.7 13.51C10.7 13.08 11.05 12.73 11.48 12.73C11.91 12.73 12.26 13.08 12.26 13.51Z" fill="#8B5D9A" fill-opacity="1.000000" fill-rule="evenodd"/>
	</g>
</svg>
