<svg width="20.000000" height="20.000000" viewBox="0 0 20 20" fill="none" xmlns="http://www.w3.org/2000/svg" xmlns:xlink="http://www.w3.org/1999/xlink">
	<desc>
			Created with Pixso.
	</desc>
	<defs>
		<clipPath id="clip52_928">
			<rect id="user 1" width="19.999922" height="20.000000" fill="white" fill-opacity="0"/>
		</clipPath>
		<linearGradient x1="5.041016" y1="4.817028" x2="14.675377" y2="4.817028" id="paint_linear_52_929_0" gradientUnits="userSpaceOnUse">
			<stop stop-color="#EE0979"/>
			<stop offset="1.000000" stop-color="#FF6A00"/>
		</linearGradient>
		<linearGradient x1="1.640625" y1="14.830425" x2="18.326654" y2="14.830425" id="paint_linear_52_930_0" gradientUnits="userSpaceOnUse">
			<stop stop-color="#EE0979"/>
			<stop offset="1.000000" stop-color="#FF6A00"/>
		</linearGradient>
	</defs>
	<rect id="user 1" width="19.999922" height="20.000000" fill="#FFFFFF" fill-opacity="0"/>
	<g clip-path="url(#clip52_928)">
		<path id="Vector" d="M9.85 9.63C11.18 9.63 12.32 9.15 13.26 8.22C14.2 7.28 14.67 6.14 14.67 4.81C14.67 3.49 14.2 2.34 13.26 1.41C12.32 0.47 11.18 0 9.85 0C8.53 0 7.38 0.47 6.45 1.41C5.51 2.34 5.04 3.49 5.04 4.81C5.04 6.14 5.51 7.28 6.45 8.22C7.38 9.15 8.53 9.63 9.85 9.63Z" fill="url(#paint_linear_52_929_0)" fill-opacity="1.000000" fill-rule="nonzero"/>
		<path id="Vector" d="M18.28 15.37C18.25 14.98 18.2 14.56 18.12 14.11C18.04 13.66 17.93 13.23 17.81 12.84C17.68 12.44 17.5 12.04 17.29 11.65C17.06 11.26 16.8 10.91 16.5 10.63C16.19 10.33 15.81 10.09 15.37 9.92C14.93 9.74 14.44 9.66 13.92 9.66C13.72 9.66 13.52 9.74 13.14 9.99C12.91 10.14 12.63 10.32 12.32 10.51C12.06 10.68 11.71 10.84 11.27 10.98C10.84 11.12 10.41 11.19 9.98 11.19C9.55 11.19 9.12 11.12 8.69 10.98C8.25 10.84 7.9 10.68 7.63 10.51C7.33 10.32 7.06 10.14 6.82 9.99C6.44 9.74 6.24 9.66 6.03 9.66C5.51 9.66 5.03 9.74 4.59 9.92C4.15 10.09 3.77 10.33 3.46 10.63C3.16 10.91 2.9 11.26 2.67 11.65C2.45 12.04 2.28 12.44 2.15 12.84C2.02 13.23 1.92 13.66 1.84 14.11C1.76 14.56 1.7 14.98 1.67 15.37C1.65 15.76 1.64 16.15 1.64 16.56C1.64 17.6 1.97 18.44 2.62 19.07C3.27 19.68 4.12 20 5.16 20L14.79 20C15.83 20 16.69 19.68 17.33 19.07C17.99 18.45 18.32 17.6 18.32 16.56C18.32 16.15 18.31 15.75 18.28 15.37Z" fill="url(#paint_linear_52_930_0)" fill-opacity="1.000000" fill-rule="nonzero"/>
	</g>
</svg>
