<svg width="16.000000" height="16.000000" viewBox="0 0 16 16" fill="none" xmlns="http://www.w3.org/2000/svg" xmlns:xlink="http://www.w3.org/1999/xlink">
	<desc>
			Created with Pixso.
	</desc>
	<defs>
		<clipPath id="clip17_301">
			<rect id="russia 1" width="16.000000" height="16.000000" fill="white" fill-opacity="0"/>
		</clipPath>
	</defs>
	<rect id="russia 1" width="16.000000" height="16.000000" fill="#FFFFFF" fill-opacity="0"/>
	<g clip-path="url(#clip17_301)">
		<path id="Vector" d="M14.8 2.75L1.19 2.75C0.53 2.75 0 3.29 0 3.95L0 6.25L16 6.25L16 3.95C16 3.29 15.46 2.75 14.8 2.75Z" fill="#F5F5F5" fill-opacity="1.000000" fill-rule="nonzero"/>
		<path id="Vector" d="M0 12.04C0 12.7 0.53 13.24 1.19 13.24L14.8 13.24C15.46 13.24 16 12.7 16 12.04L16 9.74L0 9.74L0 12.04Z" fill="#FF4B55" fill-opacity="1.000000" fill-rule="nonzero"/>
		<path id="Vector" d="M0 6.25L16 6.25L16 9.74L0 9.74L0 6.25Z" fill="#41479B" fill-opacity="1.000000" fill-rule="evenodd"/>
	</g>
</svg>
