<svg width="26.000000" height="26.000000" viewBox="0 0 26 26" fill="none" xmlns="http://www.w3.org/2000/svg" xmlns:xlink="http://www.w3.org/1999/xlink">
	<desc>
			Created with Pixso.
	</desc>
	<defs>
		<clipPath id="clip5_341">
			<rect id="united-states 1" width="26.000000" height="26.000000" fill="white" fill-opacity="0"/>
		</clipPath>
	</defs>
	<rect id="united-states 1" width="26.000000" height="26.000000" fill="#FFFFFF" fill-opacity="0"/>
	<g clip-path="url(#clip5_341)">
		<path id="Vector" d="M24.05 4.48L1.94 4.48C0.87 4.48 0 5.35 0 6.42L0 19.57C0 20.64 0.87 21.51 1.94 21.51L24.05 21.51C25.12 21.51 26 20.64 26 19.57L26 6.42C26 5.35 25.12 4.48 24.05 4.48Z" fill="#F5F5F5" fill-opacity="1.000000" fill-rule="nonzero"/>
		<path id="Vector" d="M0.1 5.79L25.89 5.79C25.62 5.03 24.9 4.48 24.05 4.48L1.94 4.48C1.09 4.48 0.37 5.03 0.1 5.79Z" fill="#FF4B55" fill-opacity="1.000000" fill-rule="nonzero"/>
		<path id="Vector" d="M0 9.72L26 9.72L26 11.03L0 11.03L0 9.72Z" fill="#FF4B55" fill-opacity="1.000000" fill-rule="evenodd"/>
		<path id="Vector" d="M0 7.1L26 7.1L26 8.41L0 8.41L0 7.1Z" fill="#FF4B55" fill-opacity="1.000000" fill-rule="evenodd"/>
		<path id="Vector" d="M0 13.2C0 13.45 0.2 13.65 0.44 13.65L26 13.65L26 12.34L0 12.34L0 13.2Z" fill="#FF4B55" fill-opacity="1.000000" fill-rule="nonzero"/>
		<path id="Vector" d="M0 17.58L26 17.58L26 18.89L0 18.89L0 17.58Z" fill="#FF4B55" fill-opacity="1.000000" fill-rule="evenodd"/>
		<path id="Vector" d="M25.89 20.2L0.1 20.2C0.37 20.96 1.09 21.51 1.94 21.51L24.05 21.51C24.9 21.51 25.62 20.96 25.89 20.2Z" fill="#FF4B55" fill-opacity="1.000000" fill-rule="nonzero"/>
		<path id="Vector" d="M0 14.96L26 14.96L26 16.27L0 16.27L0 14.96Z" fill="#FF4B55" fill-opacity="1.000000" fill-rule="evenodd"/>
		<path id="Vector" d="M0.44 13.65L11.65 13.65C11.9 13.65 12.1 13.45 12.1 13.2L12.1 4.93C12.1 4.68 11.9 4.48 11.65 4.48L1.94 4.48C0.87 4.48 0 5.35 0 6.42L0 13.2C0 13.45 0.2 13.65 0.44 13.65Z" fill="#41479B" fill-opacity="1.000000" fill-rule="nonzero"/>
		<path id="Vector" d="M1.25 5.51L1.35 5.8L1.67 5.81C1.71 5.81 1.72 5.86 1.69 5.88L1.44 6.07L1.53 6.37C1.55 6.41 1.5 6.44 1.47 6.42L1.21 6.23L0.96 6.42C0.93 6.44 0.88 6.41 0.89 6.37L0.99 6.07L0.74 5.88C0.7 5.86 0.72 5.81 0.76 5.81L1.07 5.8L1.17 5.51C1.19 5.47 1.24 5.47 1.25 5.51Z" fill="#F5F5F5" fill-opacity="1.000000" fill-rule="nonzero"/>
		<path id="Vector" d="M1.25 7.06L1.35 7.36L1.67 7.36C1.71 7.36 1.72 7.42 1.69 7.44L1.44 7.63L1.53 7.92C1.55 7.96 1.5 8 1.47 7.97L1.21 7.79L0.96 7.97C0.93 8 0.88 7.96 0.89 7.92L0.99 7.63L0.74 7.44C0.7 7.42 0.72 7.36 0.76 7.36L1.07 7.36L1.17 7.06C1.19 7.02 1.24 7.02 1.25 7.06Z" fill="#F5F5F5" fill-opacity="1.000000" fill-rule="nonzero"/>
		<path id="Vector" d="M1.25 8.62L1.35 8.92L1.67 8.92C1.71 8.92 1.72 8.97 1.69 9L1.44 9.18L1.53 9.48C1.55 9.52 1.5 9.55 1.47 9.53L1.21 9.35L0.96 9.53C0.93 9.55 0.88 9.52 0.89 9.48L0.99 9.18L0.74 9C0.7 8.97 0.72 8.92 0.76 8.92L1.07 8.92L1.17 8.62C1.19 8.58 1.24 8.58 1.25 8.62Z" fill="#F5F5F5" fill-opacity="1.000000" fill-rule="nonzero"/>
		<path id="Vector" d="M1.25 10.18L1.35 10.47L1.67 10.48C1.71 10.48 1.72 10.53 1.69 10.55L1.44 10.74L1.53 11.04C1.55 11.08 1.5 11.11 1.47 11.09L1.21 10.9L0.96 11.09C0.93 11.11 0.88 11.08 0.89 11.04L0.99 10.74L0.74 10.55C0.7 10.53 0.72 10.48 0.76 10.48L1.07 10.47L1.17 10.18C1.19 10.14 1.24 10.14 1.25 10.18Z" fill="#F5F5F5" fill-opacity="1.000000" fill-rule="nonzero"/>
		<path id="Vector" d="M1.25 11.73L1.35 12.03L1.67 12.03C1.71 12.03 1.72 12.09 1.69 12.11L1.44 12.3L1.53 12.59C1.55 12.63 1.5 12.67 1.47 12.64L1.21 12.46L0.96 12.64C0.93 12.67 0.88 12.63 0.89 12.6L0.99 12.3L0.74 12.11C0.7 12.09 0.72 12.03 0.76 12.03L1.07 12.03L1.17 11.73C1.19 11.69 1.24 11.69 1.25 11.73Z" fill="#F5F5F5" fill-opacity="1.000000" fill-rule="nonzero"/>
		<path id="Vector" d="M2.46 6.27L2.56 6.57L2.87 6.57C2.92 6.57 2.93 6.62 2.9 6.65L2.65 6.83L2.74 7.13C2.75 7.17 2.71 7.2 2.68 7.18L2.42 7L2.17 7.18C2.13 7.2 2.09 7.17 2.1 7.13L2.2 6.83L1.94 6.65C1.91 6.62 1.93 6.57 1.97 6.57L2.28 6.57L2.38 6.27C2.39 6.23 2.45 6.23 2.46 6.27Z" fill="#F5F5F5" fill-opacity="1.000000" fill-rule="nonzero"/>
		<path id="Vector" d="M2.46 7.83L2.56 8.12L2.87 8.13C2.92 8.13 2.93 8.18 2.9 8.2L2.65 8.39L2.74 8.69C2.75 8.73 2.71 8.76 2.68 8.74L2.42 8.55L2.17 8.74C2.13 8.76 2.09 8.73 2.1 8.69L2.2 8.39L1.94 8.2C1.91 8.18 1.93 8.13 1.97 8.13L2.28 8.12L2.38 7.83C2.39 7.79 2.45 7.79 2.46 7.83Z" fill="#F5F5F5" fill-opacity="1.000000" fill-rule="nonzero"/>
		<path id="Vector" d="M2.46 9.38L2.56 9.68L2.87 9.68C2.92 9.68 2.93 9.74 2.9 9.76L2.65 9.95L2.74 10.24C2.75 10.28 2.71 10.32 2.68 10.29L2.42 10.11L2.17 10.29C2.13 10.32 2.09 10.28 2.1 10.24L2.2 9.95L1.94 9.76C1.91 9.74 1.93 9.68 1.97 9.68L2.28 9.68L2.38 9.38C2.39 9.34 2.45 9.34 2.46 9.38Z" fill="#F5F5F5" fill-opacity="1.000000" fill-rule="nonzero"/>
		<path id="Vector" d="M2.46 10.94L2.56 11.24L2.87 11.24C2.92 11.24 2.93 11.29 2.9 11.32L2.65 11.5L2.74 11.8C2.75 11.84 2.71 11.87 2.68 11.85L2.42 11.67L2.17 11.85C2.13 11.87 2.09 11.84 2.1 11.8L2.2 11.5L1.94 11.32C1.91 11.29 1.93 11.24 1.97 11.24L2.28 11.24L2.38 10.94C2.39 10.9 2.45 10.9 2.46 10.94Z" fill="#F5F5F5" fill-opacity="1.000000" fill-rule="nonzero"/>
		<path id="Vector" d="M3.67 5.51L3.77 5.8L4.08 5.81C4.12 5.81 4.14 5.86 4.11 5.88L3.86 6.07L3.95 6.37C3.96 6.41 3.92 6.44 3.89 6.42L3.63 6.23L3.37 6.42C3.34 6.44 3.3 6.41 3.31 6.37L3.4 6.07L3.15 5.88C3.12 5.86 3.14 5.81 3.18 5.81L3.49 5.8L3.59 5.51C3.6 5.47 3.66 5.47 3.67 5.51Z" fill="#F5F5F5" fill-opacity="1.000000" fill-rule="nonzero"/>
		<path id="Vector" d="M3.67 7.06L3.77 7.36L4.08 7.36C4.12 7.36 4.14 7.42 4.11 7.44L3.86 7.63L3.95 7.92C3.96 7.96 3.92 8 3.89 7.97L3.63 7.79L3.37 7.97C3.34 8 3.3 7.96 3.31 7.92L3.4 7.63L3.15 7.44C3.12 7.42 3.14 7.36 3.18 7.36L3.49 7.36L3.59 7.06C3.6 7.02 3.66 7.02 3.67 7.06Z" fill="#F5F5F5" fill-opacity="1.000000" fill-rule="nonzero"/>
		<path id="Vector" d="M3.67 8.62L3.77 8.92L4.08 8.92C4.12 8.92 4.14 8.97 4.11 9L3.86 9.18L3.95 9.48C3.96 9.52 3.92 9.55 3.89 9.53L3.63 9.35L3.37 9.53C3.34 9.55 3.3 9.52 3.31 9.48L3.4 9.18L3.15 9C3.12 8.97 3.14 8.92 3.18 8.92L3.49 8.92L3.59 8.62C3.6 8.58 3.66 8.58 3.67 8.62Z" fill="#F5F5F5" fill-opacity="1.000000" fill-rule="nonzero"/>
		<path id="Vector" d="M3.67 10.18L3.77 10.47L4.08 10.48C4.12 10.48 4.14 10.53 4.11 10.55L3.86 10.74L3.95 11.04C3.96 11.08 3.92 11.11 3.89 11.09L3.63 10.9L3.37 11.09C3.34 11.11 3.3 11.08 3.31 11.04L3.4 10.74L3.15 10.55C3.12 10.53 3.14 10.48 3.18 10.48L3.49 10.47L3.59 10.18C3.6 10.14 3.66 10.14 3.67 10.18Z" fill="#F5F5F5" fill-opacity="1.000000" fill-rule="nonzero"/>
		<path id="Vector" d="M3.67 11.73L3.77 12.03L4.08 12.03C4.12 12.03 4.14 12.09 4.11 12.11L3.86 12.3L3.95 12.59C3.96 12.63 3.92 12.67 3.89 12.64L3.63 12.46L3.37 12.64C3.34 12.67 3.3 12.63 3.31 12.59L3.4 12.3L3.15 12.11C3.12 12.09 3.14 12.03 3.18 12.03L3.49 12.03L3.59 11.73C3.6 11.69 3.66 11.69 3.67 11.73Z" fill="#F5F5F5" fill-opacity="1.000000" fill-rule="nonzero"/>
		<path id="Vector" d="M4.88 6.27L4.98 6.57L5.29 6.57C5.33 6.57 5.35 6.62 5.32 6.65L5.06 6.83L5.16 7.13C5.17 7.17 5.13 7.2 5.09 7.18L4.84 7L4.58 7.18C4.55 7.2 4.51 7.17 4.52 7.13L4.61 6.83L4.36 6.65C4.33 6.62 4.35 6.57 4.39 6.57L4.7 6.57L4.8 6.27C4.81 6.23 4.87 6.23 4.88 6.27Z" fill="#F5F5F5" fill-opacity="1.000000" fill-rule="nonzero"/>
		<path id="Vector" d="M4.88 7.83L4.98 8.12L5.29 8.13C5.33 8.13 5.35 8.18 5.32 8.2L5.06 8.39L5.16 8.69C5.17 8.73 5.13 8.76 5.09 8.74L4.84 8.55L4.58 8.74C4.55 8.76 4.51 8.73 4.52 8.69L4.61 8.39L4.36 8.2C4.33 8.18 4.35 8.13 4.39 8.13L4.7 8.12L4.8 7.83C4.81 7.79 4.87 7.79 4.88 7.83Z" fill="#F5F5F5" fill-opacity="1.000000" fill-rule="nonzero"/>
		<path id="Vector" d="M4.88 9.38L4.98 9.68L5.29 9.68C5.33 9.68 5.35 9.74 5.32 9.76L5.06 9.95L5.16 10.24C5.17 10.28 5.13 10.32 5.09 10.29L4.84 10.11L4.58 10.29C4.55 10.32 4.51 10.28 4.52 10.24L4.61 9.95L4.36 9.76C4.33 9.74 4.35 9.68 4.39 9.68L4.7 9.68L4.8 9.38C4.81 9.34 4.87 9.34 4.88 9.38Z" fill="#F5F5F5" fill-opacity="1.000000" fill-rule="nonzero"/>
		<path id="Vector" d="M4.88 10.94L4.98 11.24L5.29 11.24C5.33 11.24 5.35 11.29 5.32 11.32L5.06 11.5L5.16 11.8C5.17 11.84 5.13 11.87 5.09 11.85L4.84 11.67L4.58 11.85C4.55 11.87 4.51 11.84 4.52 11.8L4.61 11.5L4.36 11.32C4.33 11.29 4.35 11.24 4.39 11.24L4.7 11.24L4.8 10.94C4.81 10.9 4.87 10.9 4.88 10.94Z" fill="#F5F5F5" fill-opacity="1.000000" fill-rule="nonzero"/>
		<path id="Vector" d="M6.09 5.51L6.19 5.8L6.5 5.81C6.54 5.81 6.56 5.86 6.52 5.88L6.27 6.07L6.37 6.37C6.38 6.41 6.33 6.44 6.3 6.42L6.05 6.23L5.79 6.42C5.76 6.44 5.71 6.41 5.73 6.37L5.82 6.07L5.57 5.88C5.54 5.86 5.55 5.81 5.59 5.81L5.91 5.8L6.01 5.51C6.02 5.47 6.07 5.47 6.09 5.51Z" fill="#F5F5F5" fill-opacity="1.000000" fill-rule="nonzero"/>
		<path id="Vector" d="M6.09 7.06L6.19 7.36L6.5 7.36C6.54 7.36 6.56 7.42 6.52 7.44L6.27 7.63L6.37 7.92C6.38 7.96 6.33 8 6.3 7.97L6.05 7.79L5.79 7.97C5.76 8 5.71 7.96 5.73 7.92L5.82 7.63L5.57 7.44C5.54 7.42 5.55 7.36 5.59 7.36L5.91 7.36L6.01 7.06C6.02 7.02 6.07 7.02 6.09 7.06Z" fill="#F5F5F5" fill-opacity="1.000000" fill-rule="nonzero"/>
		<path id="Vector" d="M6.09 8.62L6.19 8.92L6.5 8.92C6.54 8.92 6.56 8.97 6.52 9L6.27 9.18L6.37 9.48C6.38 9.52 6.33 9.55 6.3 9.53L6.05 9.35L5.79 9.53C5.76 9.55 5.71 9.52 5.73 9.48L5.82 9.18L5.57 9C5.54 8.97 5.55 8.92 5.59 8.92L5.91 8.92L6.01 8.62C6.02 8.58 6.07 8.58 6.09 8.62Z" fill="#F5F5F5" fill-opacity="1.000000" fill-rule="nonzero"/>
		<path id="Vector" d="M6.09 10.18L6.19 10.47L6.5 10.48C6.54 10.48 6.56 10.53 6.52 10.55L6.27 10.74L6.37 11.04C6.38 11.08 6.33 11.11 6.3 11.09L6.05 10.9L5.79 11.09C5.76 11.11 5.71 11.08 5.73 11.04L5.82 10.74L5.57 10.55C5.54 10.53 5.55 10.48 5.59 10.48L5.91 10.47L6.01 10.18C6.02 10.14 6.07 10.14 6.09 10.18Z" fill="#F5F5F5" fill-opacity="1.000000" fill-rule="nonzero"/>
		<path id="Vector" d="M6.09 11.73L6.19 12.03L6.5 12.03C6.54 12.03 6.56 12.09 6.52 12.11L6.27 12.3L6.37 12.59C6.38 12.63 6.33 12.67 6.3 12.64L6.05 12.46L5.79 12.64C5.76 12.67 5.71 12.63 5.73 12.59L5.82 12.3L5.57 12.11C5.54 12.09 5.55 12.03 5.59 12.03L5.91 12.03L6.01 11.73C6.02 11.69 6.07 11.69 6.09 11.73Z" fill="#F5F5F5" fill-opacity="1.000000" fill-rule="nonzero"/>
		<path id="Vector" d="M7.3 6.27L7.39 6.57L7.71 6.57C7.75 6.57 7.77 6.62 7.73 6.65L7.48 6.83L7.58 7.13C7.59 7.17 7.54 7.2 7.51 7.18L7.26 7L7 7.18C6.97 7.2 6.92 7.17 6.93 7.13L7.03 6.83L6.78 6.65C6.74 6.62 6.76 6.57 6.8 6.57L7.12 6.57L7.22 6.27C7.23 6.23 7.28 6.23 7.3 6.27Z" fill="#F5F5F5" fill-opacity="1.000000" fill-rule="nonzero"/>
		<path id="Vector" d="M7.3 7.83L7.39 8.12L7.71 8.13C7.75 8.13 7.77 8.18 7.73 8.2L7.48 8.39L7.58 8.69C7.59 8.73 7.54 8.76 7.51 8.74L7.26 8.55L7 8.74C6.97 8.76 6.92 8.73 6.93 8.69L7.03 8.39L6.78 8.2C6.74 8.18 6.76 8.13 6.8 8.13L7.12 8.12L7.22 7.83C7.23 7.79 7.28 7.79 7.3 7.83Z" fill="#F5F5F5" fill-opacity="1.000000" fill-rule="nonzero"/>
		<path id="Vector" d="M7.3 9.38L7.39 9.68L7.71 9.68C7.75 9.68 7.77 9.74 7.73 9.76L7.48 9.95L7.58 10.24C7.59 10.28 7.54 10.32 7.51 10.29L7.26 10.11L7 10.29C6.97 10.32 6.92 10.28 6.93 10.24L7.03 9.95L6.78 9.76C6.74 9.74 6.76 9.68 6.8 9.68L7.12 9.68L7.22 9.38C7.23 9.34 7.28 9.34 7.3 9.38Z" fill="#F5F5F5" fill-opacity="1.000000" fill-rule="nonzero"/>
		<path id="Vector" d="M7.3 10.94L7.39 11.24L7.71 11.24C7.75 11.24 7.77 11.29 7.73 11.32L7.48 11.5L7.58 11.8C7.59 11.84 7.54 11.87 7.51 11.85L7.26 11.67L7 11.85C6.97 11.87 6.92 11.84 6.93 11.8L7.03 11.5L6.78 11.32C6.74 11.29 6.76 11.24 6.8 11.24L7.12 11.24L7.22 10.94C7.23 10.9 7.28 10.9 7.3 10.94Z" fill="#F5F5F5" fill-opacity="1.000000" fill-rule="nonzero"/>
		<path id="Vector" d="M8.5 5.51L8.6 5.8L8.92 5.81C8.96 5.81 8.97 5.86 8.94 5.88L8.69 6.07L8.78 6.37C8.8 6.41 8.75 6.44 8.72 6.42L8.46 6.23L8.21 6.42C8.17 6.44 8.13 6.41 8.14 6.37L8.24 6.07L7.99 5.88C7.95 5.86 7.97 5.81 8.01 5.81L8.32 5.8L8.42 5.51C8.44 5.47 8.49 5.47 8.5 5.51Z" fill="#F5F5F5" fill-opacity="1.000000" fill-rule="nonzero"/>
		<path id="Vector" d="M8.5 7.06L8.6 7.36L8.92 7.36C8.96 7.36 8.97 7.42 8.94 7.44L8.69 7.63L8.78 7.92C8.8 7.96 8.75 8 8.72 7.97L8.46 7.79L8.21 7.97C8.17 8 8.13 7.96 8.14 7.92L8.24 7.63L7.99 7.44C7.95 7.42 7.97 7.36 8.01 7.36L8.32 7.36L8.42 7.06C8.44 7.02 8.49 7.02 8.5 7.06Z" fill="#F5F5F5" fill-opacity="1.000000" fill-rule="nonzero"/>
		<path id="Vector" d="M8.5 8.62L8.6 8.92L8.92 8.92C8.96 8.92 8.97 8.97 8.94 9L8.69 9.18L8.78 9.48C8.8 9.52 8.75 9.55 8.72 9.53L8.46 9.35L8.21 9.53C8.17 9.55 8.13 9.52 8.14 9.48L8.24 9.18L7.99 9C7.95 8.97 7.97 8.92 8.01 8.92L8.32 8.92L8.42 8.62C8.44 8.58 8.49 8.58 8.5 8.62Z" fill="#F5F5F5" fill-opacity="1.000000" fill-rule="nonzero"/>
		<path id="Vector" d="M8.5 10.18L8.6 10.47L8.92 10.48C8.96 10.48 8.97 10.53 8.94 10.55L8.69 10.74L8.78 11.04C8.8 11.08 8.75 11.11 8.72 11.09L8.46 10.9L8.21 11.09C8.17 11.11 8.13 11.08 8.14 11.04L8.24 10.74L7.99 10.55C7.95 10.53 7.97 10.48 8.01 10.48L8.32 10.47L8.42 10.18C8.44 10.14 8.49 10.14 8.5 10.18Z" fill="#F5F5F5" fill-opacity="1.000000" fill-rule="nonzero"/>
		<path id="Vector" d="M8.5 11.73L8.6 12.03L8.92 12.03C8.96 12.03 8.97 12.09 8.94 12.11L8.69 12.3L8.78 12.59C8.8 12.63 8.75 12.67 8.72 12.64L8.46 12.46L8.21 12.64C8.17 12.67 8.13 12.63 8.14 12.59L8.24 12.3L7.99 12.11C7.95 12.09 7.97 12.03 8.01 12.03L8.32 12.03L8.42 11.73C8.44 11.69 8.49 11.69 8.5 11.73Z" fill="#F5F5F5" fill-opacity="1.000000" fill-rule="nonzero"/>
		<path id="Vector" d="M9.71 6.27L9.81 6.57L10.12 6.57C10.17 6.57 10.18 6.62 10.15 6.65L9.9 6.83L9.99 7.13C10 7.17 9.96 7.2 9.93 7.18L9.67 7L9.42 7.18C9.38 7.2 9.34 7.17 9.35 7.13L9.45 6.83L9.19 6.65C9.16 6.62 9.18 6.57 9.22 6.57L9.53 6.57L9.63 6.27C9.64 6.23 9.7 6.23 9.71 6.27Z" fill="#F5F5F5" fill-opacity="1.000000" fill-rule="nonzero"/>
		<path id="Vector" d="M9.71 7.83L9.81 8.12L10.12 8.13C10.17 8.13 10.18 8.18 10.15 8.2L9.9 8.39L9.99 8.69C10 8.73 9.96 8.76 9.93 8.74L9.67 8.55L9.42 8.74C9.38 8.76 9.34 8.73 9.35 8.69L9.45 8.39L9.19 8.2C9.16 8.18 9.18 8.13 9.22 8.13L9.53 8.12L9.63 7.83C9.64 7.79 9.7 7.79 9.71 7.83Z" fill="#F5F5F5" fill-opacity="1.000000" fill-rule="nonzero"/>
		<path id="Vector" d="M9.71 9.38L9.81 9.68L10.12 9.68C10.17 9.68 10.18 9.74 10.15 9.76L9.9 9.95L9.99 10.24C10 10.28 9.96 10.32 9.93 10.29L9.67 10.11L9.42 10.29C9.38 10.32 9.34 10.28 9.35 10.24L9.45 9.95L9.19 9.76C9.16 9.74 9.18 9.68 9.22 9.68L9.53 9.68L9.63 9.38C9.64 9.34 9.7 9.34 9.71 9.38Z" fill="#F5F5F5" fill-opacity="1.000000" fill-rule="nonzero"/>
		<path id="Vector" d="M9.71 10.94L9.81 11.24L10.12 11.24C10.17 11.24 10.18 11.29 10.15 11.32L9.9 11.5L9.99 11.8C10 11.84 9.96 11.87 9.93 11.85L9.67 11.67L9.42 11.85C9.38 11.87 9.34 11.84 9.35 11.8L9.45 11.5L9.19 11.32C9.16 11.29 9.18 11.24 9.22 11.24L9.53 11.24L9.63 10.94C9.64 10.9 9.7 10.9 9.71 10.94Z" fill="#F5F5F5" fill-opacity="1.000000" fill-rule="nonzero"/>
		<path id="Vector" d="M10.92 5.51L11.02 5.8L11.33 5.81C11.37 5.81 11.39 5.86 11.36 5.88L11.1 6.07L11.2 6.37C11.21 6.41 11.17 6.44 11.13 6.42L10.88 6.23L10.62 6.42C10.59 6.44 10.55 6.41 10.56 6.37L10.65 6.07L10.4 5.88C10.37 5.86 10.39 5.81 10.43 5.81L10.74 5.8L10.84 5.51C10.85 5.47 10.91 5.47 10.92 5.51Z" fill="#F5F5F5" fill-opacity="1.000000" fill-rule="nonzero"/>
		<path id="Vector" d="M10.92 7.06L11.02 7.36L11.33 7.36C11.37 7.36 11.39 7.42 11.36 7.44L11.1 7.63L11.2 7.92C11.21 7.96 11.17 8 11.13 7.97L10.88 7.79L10.62 7.97C10.59 8 10.55 7.96 10.56 7.92L10.65 7.63L10.4 7.44C10.37 7.42 10.39 7.36 10.43 7.36L10.74 7.36L10.84 7.06C10.85 7.02 10.91 7.02 10.92 7.06Z" fill="#F5F5F5" fill-opacity="1.000000" fill-rule="nonzero"/>
		<path id="Vector" d="M10.92 8.62L11.02 8.92L11.33 8.92C11.37 8.92 11.39 8.97 11.36 9L11.1 9.18L11.2 9.48C11.21 9.52 11.17 9.55 11.13 9.53L10.88 9.35L10.62 9.53C10.59 9.55 10.55 9.52 10.56 9.48L10.65 9.18L10.4 9C10.37 8.97 10.39 8.92 10.43 8.92L10.74 8.92L10.84 8.62C10.85 8.58 10.91 8.58 10.92 8.62Z" fill="#F5F5F5" fill-opacity="1.000000" fill-rule="nonzero"/>
		<path id="Vector" d="M10.92 10.18L11.02 10.47L11.33 10.48C11.37 10.48 11.39 10.53 11.36 10.55L11.1 10.74L11.2 11.04C11.21 11.08 11.17 11.11 11.13 11.09L10.88 10.9L10.62 11.09C10.59 11.11 10.55 11.08 10.56 11.04L10.65 10.74L10.4 10.55C10.37 10.53 10.39 10.48 10.43 10.48L10.74 10.47L10.84 10.18C10.85 10.14 10.91 10.14 10.92 10.18Z" fill="#F5F5F5" fill-opacity="1.000000" fill-rule="nonzero"/>
		<path id="Vector" d="M10.92 11.73L11.02 12.03L11.33 12.03C11.37 12.03 11.39 12.09 11.36 12.11L11.1 12.3L11.2 12.59C11.21 12.63 11.17 12.67 11.13 12.64L10.88 12.46L10.62 12.64C10.59 12.67 10.55 12.63 10.56 12.59L10.65 12.3L10.4 12.11C10.37 12.09 10.39 12.03 10.43 12.03L10.74 12.03L10.84 11.73C10.85 11.69 10.91 11.69 10.92 11.73Z" fill="#F5F5F5" fill-opacity="1.000000" fill-rule="nonzero"/>
	</g>
</svg>
